<svg xmlns="http://www.w3.org/2000/svg" xmlns:xlink="http://www.w3.org/1999/xlink" width="1366" zoomAndPan="magnify" viewBox="0 0 1024.5 576" height="768" preserveAspectRatio="xMidYMid meet" version="1.0"><defs><clipPath id="f9a976eab6"><path d="M 329.410156 105.410156 L 694.480469 105.410156 L 694.480469 470.480469 L 329.410156 470.480469 Z M 329.410156 105.410156 " clip-rule="nonzero"/></clipPath><clipPath id="2ac134e34c"><path d="M 363 282 L 694.480469 282 L 694.480469 426 L 363 426 Z M 363 282 " clip-rule="nonzero"/></clipPath><clipPath id="f9c59a8cbf"><path d="M 329.410156 151 L 683 151 L 683 349 L 329.410156 349 Z M 329.410156 151 " clip-rule="nonzero"/></clipPath><clipPath id="d75f4839ae"><path d="M 329.410156 183 L 680 183 L 680 327 L 329.410156 327 Z M 329.410156 183 " clip-rule="nonzero"/></clipPath></defs><g clip-path="url(#f9a976eab6)"><path fill="#f38120" d="M 511.898438 105.410156 C 612.738281 105.410156 694.480469 187.058594 694.480469 287.898438 C 694.480469 388.738281 612.738281 470.480469 511.898438 470.480469 C 411.148438 470.480469 329.410156 388.738281 329.410156 287.898438 C 329.410156 187.058594 411.148438 105.410156 511.898438 105.410156 Z M 511.898438 105.410156 " fill-opacity="1" fill-rule="evenodd"/></g><g clip-path="url(#2ac134e34c)"><path fill="#f89d32" d="M 694.390625 282.828125 C 694.480469 284.550781 694.480469 286.179688 694.480469 287.898438 C 694.480469 310.4375 690.40625 331.890625 682.984375 351.808594 C 679.363281 352.351562 675.289062 352.710938 670.128906 352.710938 C 652.839844 352.710938 643.609375 349.816406 630.753906 362.035156 C 622.605469 369.730469 597.441406 350.269531 586.761719 369.367188 C 563.316406 411.640625 542.042969 377.425781 524.300781 396.613281 C 493.523438 429.835938 449.167969 415.535156 423.914062 415.445312 C 399.199219 415.351562 399.5625 419.609375 391.957031 425.492188 C 381.546875 416.347656 372.132812 406.121094 363.988281 394.894531 C 383.179688 382.675781 415.675781 399.058594 426.808594 368.554688 C 433.78125 349.183594 445.277344 317.679688 511.355469 327.726562 C 561.144531 335.242188 558.425781 320.304688 595.269531 303.378906 C 617.988281 292.96875 649.851562 301.566406 670.671875 289.257812 C 671.125 288.984375 686.242188 284.097656 694.390625 282.828125 Z M 694.390625 282.828125 " fill-opacity="1" fill-rule="evenodd"/></g><path fill="#dd5426" d="M 687.238281 236.753906 C 689.230469 243.632812 690.859375 250.695312 692.035156 257.847656 C 682.351562 257.753906 673.207031 256.125 660.171875 266.082031 C 649.21875 274.59375 631.566406 277.308594 618.171875 277.308594 C 571.007812 277.308594 584.042969 288.625 551.546875 300.210938 C 522.582031 310.4375 491.351562 302.652344 456.230469 321.300781 C 446.453125 326.550781 427.804688 327.09375 419.929688 340.402344 C 415.3125 348.097656 411.238281 339.132812 404.359375 356.0625 C 401.371094 363.574219 384.71875 351.265625 367.609375 371.8125 C 365.4375 374.347656 359.824219 378.238281 354.753906 380.863281 C 351.222656 374.890625 348.054688 368.734375 345.25 362.398438 C 354.574219 353.796875 359.734375 335.421875 398.203125 340.492188 C 409.882812 342.03125 426.175781 311.074219 452.15625 313.0625 C 452.609375 313.0625 472.792969 309.441406 475.78125 307 C 508.367188 280.566406 525.75 298.128906 543.402344 290.34375 C 543.582031 290.253906 560.238281 277.851562 566.574219 275.046875 C 595.992188 261.828125 596.898438 273.777344 619.167969 265.902344 C 635.824219 260.019531 625.324219 251.238281 655.105469 251.238281 C 683.074219 251.238281 671.214844 245.808594 687.238281 236.753906 Z M 687.238281 236.753906 " fill-opacity="1" fill-rule="evenodd"/><g clip-path="url(#f9c59a8cbf)"><path fill="#f8af22" d="M 633.199219 151.484375 C 654.652344 170.582031 671.578125 194.570312 682.078125 221.726562 C 672.847656 233.949219 657.1875 242.730469 641.617188 240.917969 C 629.667969 239.5625 638.539062 218.558594 615.457031 240.648438 C 603.507812 252.054688 601.425781 221.367188 589.839844 238.476562 C 577.347656 256.761719 562.589844 233.859375 553.628906 243.996094 C 551.003906 246.894531 568.566406 266.988281 550.007812 269.160156 C 538.058594 270.519531 536.339844 257.574219 510.179688 257.574219 C 507.191406 268.980469 534.53125 278.214844 505.292969 279.117188 C 495.425781 279.390625 499.859375 266.175781 483.203125 285.90625 C 467 305.277344 448.261719 268.800781 440.027344 291.519531 C 428.347656 323.472656 428.890625 298.308594 420.019531 301.566406 C 407.710938 306.273438 420.835938 317.589844 384.445312 314.695312 C 375.394531 313.96875 376.933594 342.484375 360.820312 336.238281 C 353.757812 333.523438 346.246094 343.027344 339.726562 348.640625 C 333.03125 329.628906 329.410156 309.171875 329.410156 287.898438 C 329.410156 280.476562 329.859375 273.144531 330.675781 265.992188 C 343.710938 261.917969 347.785156 256.488281 362.269531 249.066406 C 372.316406 243.996094 374.035156 252.144531 391.234375 230.328125 C 400.648438 218.46875 426.175781 208.785156 440.929688 208.875 C 471.347656 209.144531 489.632812 173.660156 497.777344 173.390625 C 509.546875 172.9375 520.589844 164.882812 544.757812 164.882812 C 570.195312 164.882812 594.996094 168.320312 617.175781 154.378906 C 620.070312 152.570312 626.679688 151.847656 633.199219 151.484375 Z M 633.199219 151.484375 " fill-opacity="1" fill-rule="evenodd"/></g><path fill="#fdc570" d="M 413.320312 220.371094 C 401.554688 215.574219 381.546875 217.925781 384.445312 232.410156 C 385.804688 239.289062 401.917969 241.371094 408.253906 235.757812 C 411.332031 232.953125 417.125 222 413.320312 220.371094 Z M 413.320312 220.371094 " fill-opacity="1" fill-rule="evenodd"/><path fill="#fdc570" d="M 466.367188 182.171875 C 460.84375 179.09375 441.65625 187.964844 441.925781 195.386719 C 442.109375 204.4375 441.5625 204.347656 453.058594 204.527344 C 455.867188 204.527344 466.457031 198.644531 466.367188 194.570312 C 466.367188 192.851562 467.363281 182.714844 466.367188 182.171875 Z M 466.367188 182.171875 " fill-opacity="1" fill-rule="evenodd"/><path fill="#fdc570" d="M 563.496094 158.636719 C 552.179688 154.742188 552 165.0625 554.445312 165.875 C 557.792969 166.964844 571.644531 164.972656 565.398438 159.992188 C 564.761719 159.449219 564.492188 158.90625 563.496094 158.636719 Z M 563.496094 158.636719 " fill-opacity="1" fill-rule="evenodd"/><path fill="#fdc570" d="M 526.835938 163.976562 C 523.125 165.332031 519.59375 165.0625 515.882812 167.777344 C 513.527344 169.496094 507.917969 173.84375 512.261719 176.738281 C 514.070312 177.914062 519.230469 177.734375 521.132812 176.738281 C 524.753906 174.566406 525.023438 172.757812 529.914062 172.484375 C 534.980469 172.304688 539.78125 168.5 535.976562 164.882812 C 533.804688 162.707031 530.09375 162.800781 526.835938 163.976562 Z M 526.835938 163.976562 " fill-opacity="1" fill-rule="evenodd"/><g clip-path="url(#d75f4839ae)"><path fill="#fdc570" d="M 662.164062 184.160156 C 668.773438 193.847656 674.566406 204.167969 679.363281 215.03125 C 662.980469 214.488281 654.5625 212.855469 630.574219 216.929688 C 610.65625 220.28125 614.914062 223.992188 588.75 221.910156 C 560.960938 219.644531 523.9375 231.324219 502.574219 248.523438 C 478.949219 267.53125 445.09375 248.703125 422.464844 268.164062 C 405.265625 282.828125 360.546875 312.703125 333.480469 326.640625 C 331.851562 318.765625 330.585938 310.710938 329.953125 302.5625 C 353.847656 282.378906 371.5 278.9375 400.195312 264.273438 C 415.585938 256.398438 435.410156 240.285156 452.425781 240.648438 C 491.171875 241.371094 499.496094 204.890625 542.3125 204.890625 C 574.628906 204.890625 552.273438 208.601562 584.226562 194.753906 C 609.210938 183.800781 635.371094 183.347656 662.164062 184.160156 Z M 662.164062 184.160156 " fill-opacity="1" fill-rule="evenodd"/></g><path fill="#dd5426" d="M 693.847656 302.925781 C 692.941406 314.695312 690.859375 326.097656 687.78125 337.050781 C 687.417969 338.410156 687.058594 339.769531 686.605469 341.035156 L 686.605469 341.214844 C 686.152344 342.574219 685.789062 343.839844 685.335938 345.109375 L 685.246094 345.289062 C 684.886719 346.558594 684.433594 347.824219 683.980469 349.089844 L 683.890625 349.453125 C 683.527344 350.179688 683.253906 350.992188 682.984375 351.808594 C 679.363281 352.351562 675.199219 352.710938 670.128906 352.710938 C 652.839844 352.710938 643.609375 349.816406 630.753906 362.035156 C 622.605469 369.730469 597.441406 350.269531 586.761719 369.367188 C 563.316406 411.640625 542.042969 377.425781 524.300781 396.613281 C 493.523438 429.835938 449.167969 415.535156 423.914062 415.445312 C 399.199219 415.351562 399.5625 419.609375 391.957031 425.492188 C 386.074219 420.332031 380.554688 414.898438 375.394531 409.015625 C 453.785156 392 430.882812 313.605469 541.136719 351.445312 C 558.699219 357.511719 556.4375 357.417969 573.632812 347.007812 C 601.152344 330.355469 629.035156 304.917969 653.023438 312.066406 C 673.207031 313.605469 687.871094 314.242188 693.847656 302.925781 Z M 693.847656 302.925781 " fill-opacity="1" fill-rule="evenodd"/><path fill="#f69220" d="M 692.308594 316.230469 C 691.132812 323.925781 689.410156 331.53125 687.238281 338.863281 C 682.984375 337.144531 678.003906 335.605469 675.832031 335.785156 C 651.300781 338.410156 654.199219 335.421875 632.5625 347.371094 C 617.898438 355.519531 580.695312 358.867188 576.984375 364.117188 C 561.144531 386.386719 512.804688 378.601562 512.082031 378.871094 C 492.707031 386.65625 502.484375 400.054688 474.964844 400.054688 C 443.828125 400.054688 440.476562 368.191406 453.605469 359.410156 C 479.222656 342.394531 490.625 377.0625 481.03125 379.234375 C 472.882812 381.136719 470.53125 376.882812 468.8125 370.996094 C 464.285156 356.332031 449.441406 372.355469 460.484375 382.945312 C 468.539062 390.730469 504.476562 391.546875 487.277344 357.601562 C 480.21875 343.660156 508.1875 356.242188 512.53125 358.777344 C 537.699219 373.53125 569.289062 352.257812 579.429688 352.710938 C 601.785156 353.527344 613.375 326.734375 627.949219 326.097656 C 652.929688 325.011719 653.925781 326.097656 679.273438 320.488281 C 682.441406 319.851562 687.691406 317.953125 692.308594 316.230469 Z M 692.308594 316.230469 " fill-opacity="1" fill-rule="evenodd"/><path fill="#f69220" d="M 511.71875 393.265625 C 509.726562 392.996094 488.996094 396.976562 488.363281 404.492188 C 487.1875 418.429688 513.800781 401.59375 511.71875 393.265625 Z M 511.71875 393.265625 " fill-opacity="1" fill-rule="evenodd"/><path fill="#f89d32" d="M 447.808594 427.933594 C 440.296875 427.933594 434.414062 428.207031 439.210938 437.984375 C 441.203125 441.875 453.511719 440.066406 460.664062 443.050781 C 470.351562 447.035156 475.691406 440.246094 469.265625 436.804688 C 463.109375 433.457031 456.863281 427.933594 447.808594 427.933594 Z M 447.808594 427.933594 " fill-opacity="1" fill-rule="evenodd"/><path fill="#f89d32" d="M 496.421875 430.832031 C 479.582031 430.832031 479.855469 441.875 500.222656 440.066406 C 506.105469 439.523438 512.53125 430.832031 496.421875 430.832031 Z M 496.421875 430.832031 " fill-opacity="1" fill-rule="evenodd"/><path fill="#f89d32" d="M 541.953125 440.425781 C 541.136719 440.425781 538.785156 440.425781 536.25 440.335938 C 531.8125 440.15625 529.371094 438.617188 528.464844 442.960938 C 525.839844 455.183594 559.152344 440.15625 541.953125 440.425781 Z M 541.953125 440.425781 " fill-opacity="1" fill-rule="evenodd"/><path fill="#f89d32" d="M 576.984375 427.210938 C 565.125 423.5 557.25 444.046875 562.953125 444.046875 C 579.972656 444.046875 565.125 441.964844 580.515625 435.449219 C 588.207031 432.097656 578.25 427.574219 576.984375 427.210938 Z M 576.984375 427.210938 " fill-opacity="1" fill-rule="evenodd"/><path fill="#f89d32" d="M 612.648438 405.484375 C 609.027344 405.757812 605.226562 406.480469 602.601562 412.183594 C 599.433594 419.425781 612.105469 418.792969 618.082031 414.085938 C 625.683594 408.203125 619.621094 404.761719 612.648438 405.484375 Z M 612.648438 405.484375 " fill-opacity="1" fill-rule="evenodd"/><path fill="#f89d32" d="M 649.308594 373.894531 C 639.535156 372.535156 631.023438 373.078125 625.867188 382.402344 C 609.390625 412.273438 645.78125 387.742188 651.664062 385.660156 C 664.789062 380.953125 657.003906 374.707031 651.84375 374.527344 C 651.753906 374.527344 649.761719 373.984375 649.308594 373.894531 Z M 649.308594 373.894531 " fill-opacity="1" fill-rule="evenodd"/><path fill="#f89d32" d="M 594.273438 394.082031 C 594.90625 393.808594 602.511719 390.730469 607.671875 388.46875 C 616.632812 384.574219 615.003906 378.871094 605.679688 380.320312 C 580.421875 384.03125 582.144531 397.882812 594.273438 394.082031 Z M 594.273438 394.082031 " fill-opacity="1" fill-rule="evenodd"/></svg>