<svg xmlns="http://www.w3.org/2000/svg" xmlns:xlink="http://www.w3.org/1999/xlink" width="1366" zoomAndPan="magnify" viewBox="0 0 1024.5 576" height="768" preserveAspectRatio="xMidYMid meet" version="1.0"><path fill="#eb1c24" d="M 490.90625 98.011719 C 589.25 86.445312 678.429688 156.832031 689.988281 255.25 C 701.550781 353.667969 631.21875 442.921875 532.875 454.488281 C 434.445312 466.058594 345.351562 395.671875 333.792969 297.25 C 322.234375 198.832031 392.566406 109.582031 490.90625 98.011719 Z M 490.90625 98.011719 " fill-opacity="1" fill-rule="evenodd"/><path fill="#f16623" d="M 332.636719 271.710938 C 334.683594 185.308594 398.878906 111.183594 486.371094 98.636719 C 473.035156 149.890625 537.054688 112.339844 510.914062 167.867188 C 499.265625 192.515625 521.761719 213.070312 495.710938 231.492188 C 477.925781 243.59375 462.453125 275.628906 489.039062 283.015625 C 513.757812 290.398438 519.273438 313.179688 502.289062 322.34375 C 484.417969 331.777344 464.855469 320.210938 443.335938 285.503906 C 381.984375 240.921875 380.742188 362.65625 332.636719 271.710938 Z M 332.636719 271.710938 " fill-opacity="1" fill-rule="evenodd"/><path fill="#ba1f23" d="M 675.140625 201.949219 C 682.609375 218.410156 687.765625 236.296875 689.988281 255.25 C 701.550781 353.667969 631.21875 442.921875 532.875 454.488281 C 496.421875 458.761719 461.296875 451.820312 430.976562 436.425781 C 406.171875 328.21875 565.242188 489.640625 560.617188 366.394531 C 558.660156 333.558594 593.070312 326.792969 617.789062 339.609375 C 632.816406 347.351562 671.671875 322.613281 629.082031 305.707031 C 581.691406 283.015625 593.515625 259.964844 640.375 261.566406 C 654.78125 256.675781 654.691406 207.554688 675.140625 201.949219 Z M 675.140625 201.949219 " fill-opacity="1" fill-rule="evenodd"/><path fill="#ba1f23" d="M 439.871094 369.6875 C 416.664062 372.710938 397.367188 370.933594 391.5 352.867188 C 384.652344 330.175781 393.542969 339.785156 405.460938 347.796875 C 426.355469 361.945312 470.101562 357.585938 471.613281 365.238281 C 468.410156 376.984375 450.007812 367.996094 439.871094 369.6875 Z M 439.871094 369.6875 " fill-opacity="1" fill-rule="evenodd"/><path fill="#ba1f23" d="M 507.089844 381.964844 C 517.582031 386.59375 533.765625 377.070312 535.542969 381.519531 C 516.605469 408.574219 467.523438 364.257812 507.089844 381.964844 Z M 507.089844 381.964844 " fill-opacity="1" fill-rule="evenodd"/><path fill="#ba1f23" d="M 600.363281 311.667969 C 600.984375 315.9375 593.515625 320.386719 583.914062 321.542969 C 574.3125 322.703125 566.398438 320.03125 565.597656 315.761719 C 562.839844 300.097656 599.472656 304.726562 600.363281 311.667969 Z M 600.363281 311.667969 " fill-opacity="1" fill-rule="evenodd"/><path fill="#ba1f23" d="M 569.332031 284.972656 C 570.84375 301.433594 588.449219 297.25 586.9375 281.324219 C 585.78125 269.308594 568.175781 272.957031 569.332031 284.972656 Z M 569.332031 284.972656 " fill-opacity="1" fill-rule="evenodd"/><path fill="#ba1f23" d="M 539.542969 236.117188 C 557.59375 272.15625 561.238281 252.402344 552.527344 242.523438 C 529.050781 195.628906 598.140625 207.910156 569.777344 157.542969 C 563.285156 152.558594 551.992188 156.476562 557.238281 188.332031 C 543.636719 206.753906 531.1875 220.367188 539.542969 236.117188 Z M 539.542969 236.117188 " fill-opacity="1" fill-rule="evenodd"/><path fill="#f16623" d="M 527.007812 370.132812 C 526.742188 367.285156 521.671875 365.59375 515.894531 366.214844 C 510.023438 366.925781 505.757812 369.773438 505.933594 372.621094 C 506.558594 382.855469 527.453125 374.582031 527.007812 370.132812 Z M 527.007812 370.132812 " fill-opacity="1" fill-rule="evenodd"/><path fill="#f16623" d="M 436.492188 325.015625 C 422.355469 281.769531 365.625 346.550781 438.179688 350.820312 C 491.351562 354.46875 441.113281 337.207031 436.492188 325.015625 Z M 436.492188 325.015625 " fill-opacity="1" fill-rule="evenodd"/><path fill="#f16623" d="M 521.050781 208.445312 C 521.316406 218.144531 529.851562 211.46875 535.988281 194.738281 C 577.421875 171.335938 515.804688 146.6875 521.050781 208.445312 Z M 521.050781 208.445312 " fill-opacity="1" fill-rule="evenodd"/><path fill="#eb1c24" d="M 468.855469 199.011719 C 460.054688 209.332031 429.46875 219.921875 432.046875 199.367188 C 435.601562 167.777344 463.878906 167.066406 479.347656 181.480469 C 483.527344 189.042969 480.148438 194.917969 468.855469 199.011719 Z M 468.855469 199.011719 " fill-opacity="1" fill-rule="evenodd"/><path fill="#eb1c24" d="M 383.765625 271.445312 C 399.769531 275.539062 406.792969 267.976562 405.015625 249.378906 C 415.0625 214.40625 353.621094 249.378906 383.765625 271.445312 Z M 383.765625 271.445312 " fill-opacity="1" fill-rule="evenodd"/><path fill="#ee4723" d="M 354.15625 252.226562 C 352.019531 272.871094 336.816406 266.195312 343.039062 245.460938 C 364.824219 177.386719 402.082031 130.226562 462.367188 114.472656 C 478.460938 111.539062 473.65625 126.132812 479.347656 132.003906 C 521.40625 145.085938 494.996094 192.871094 456.765625 154.875 C 440.046875 137.34375 420.308594 168.3125 416.308594 193.050781 C 412.574219 211.378906 401.28125 218.054688 384.476562 216.363281 C 367.847656 216.898438 357.800781 232.292969 354.15625 252.226562 Z M 354.15625 252.226562 " fill-opacity="1" fill-rule="evenodd"/></svg>