<svg xmlns="http://www.w3.org/2000/svg" xmlns:xlink="http://www.w3.org/1999/xlink" width="1366" zoomAndPan="magnify" viewBox="0 0 1024.5 576" height="768" preserveAspectRatio="xMidYMid meet" version="1.0"><path fill="#c97c2c" d="M 472.152344 108.125 C 571.566406 86.101562 669.976562 148.875 691.996094 248.199219 C 714.109375 347.613281 651.335938 446.023438 552.011719 468.042969 C 452.597656 490.0625 354.191406 427.382812 332.167969 327.96875 C 310.058594 228.644531 372.832031 130.234375 472.152344 108.125 Z M 472.152344 108.125 " fill-opacity="1" fill-rule="evenodd"/><path fill="#9a6a2a" d="M 513.363281 472.429688 L 513.179688 472.429688 L 488.417969 470.96875 C 417.878906 461.828125 356.75 412.121094 335.550781 341.125 C 372.097656 359.675781 358.300781 402.984375 420.800781 409.839844 C 457.535156 410.296875 437.15625 446.9375 485.492188 446.113281 C 506.054688 445.746094 517.019531 453.148438 513.363281 472.429688 Z M 513.363281 472.429688 " fill-opacity="1" fill-rule="evenodd"/><path fill="#9a6a2a" d="M 417.421875 389.097656 C 358.300781 371.371094 374.382812 340.667969 413.949219 370.820312 C 419.339844 364.242188 490.519531 366.253906 445.835938 385.257812 C 435.421875 389.644531 424.457031 393.574219 417.421875 389.097656 Z M 417.421875 389.097656 " fill-opacity="1" fill-rule="evenodd"/><path fill="#6e3719" d="M 555.210938 400.609375 C 575.132812 396.132812 593.589844 403.167969 596.511719 416.144531 C 599.4375 429.117188 585.546875 443.28125 565.628906 447.667969 C 545.707031 452.144531 527.25 445.109375 524.417969 432.132812 C 521.496094 419.160156 535.292969 404.996094 555.210938 400.609375 Z M 555.210938 400.609375 " fill-opacity="1" fill-rule="evenodd"/><path fill="#9a6a2a" d="M 555.210938 400.609375 C 572.664062 396.679688 589.019531 401.613281 594.777344 411.574219 C 593.589844 422.355469 580.703125 433.046875 563.253906 436.886719 C 545.800781 440.8125 529.628906 436.519531 524.054688 427.289062 C 524.96875 415.777344 537.757812 404.449219 555.210938 400.609375 Z M 555.210938 400.609375 " fill-opacity="1" fill-rule="evenodd"/><path fill="#6e3719" d="M 489.332031 385.808594 C 499.929688 388.273438 507.242188 395.859375 505.597656 402.800781 C 503.953125 409.746094 494.082031 413.308594 483.484375 410.84375 C 472.882812 408.375 465.664062 400.699219 467.21875 393.757812 C 468.863281 386.902344 478.824219 383.25 489.332031 385.808594 Z M 489.332031 385.808594 " fill-opacity="1" fill-rule="evenodd"/><path fill="#9a6a2a" d="M 489.332031 385.808594 C 498.652344 387.910156 505.414062 394.121094 505.777344 400.242188 C 502.761719 405.085938 494.082031 407.28125 484.855469 405.085938 C 475.535156 402.894531 468.773438 397.136719 468.222656 391.382812 C 471.332031 386.082031 480.101562 383.613281 489.332031 385.808594 Z M 489.332031 385.808594 " fill-opacity="1" fill-rule="evenodd"/><path fill="#c97c2c" d="M 633.703125 326.324219 C 639.640625 314.261719 650.878906 307.5 658.828125 311.429688 C 666.777344 315.265625 668.332031 328.242188 662.484375 340.394531 C 656.542969 352.546875 645.304688 359.21875 637.355469 355.289062 C 629.40625 351.449219 627.851562 338.476562 633.703125 326.324219 Z M 633.703125 326.324219 " fill-opacity="1" fill-rule="evenodd"/><path fill="#c97c2c" d="M 633.703125 326.324219 C 638.910156 315.722656 648.230469 309.328125 655.722656 310.425781 C 660.839844 315.449219 661.023438 326.507812 655.90625 337.195312 C 650.695312 347.796875 641.742188 354.464844 634.707031 353.460938 C 629.132812 348.253906 628.585938 337.015625 633.703125 326.324219 Z M 633.703125 326.324219 " fill-opacity="1" fill-rule="evenodd"/><path fill="#c97c2c" d="M 642.109375 249.933594 C 641.925781 240.707031 646.675781 233.214844 652.707031 233.121094 C 658.738281 233.03125 663.671875 240.339844 663.855469 249.570312 C 663.945312 258.707031 659.195312 266.289062 653.164062 266.382812 C 647.222656 266.472656 642.199219 259.074219 642.109375 249.933594 Z M 642.109375 249.933594 " fill-opacity="1" fill-rule="evenodd"/><path fill="#c97c2c" d="M 642.109375 249.933594 C 642.015625 241.804688 645.578125 235.042969 650.515625 233.488281 C 655.175781 234.949219 658.738281 241.621094 658.828125 249.660156 C 659.011719 257.703125 655.632812 264.464844 651.0625 266.015625 C 646.035156 264.554688 642.199219 257.976562 642.109375 249.933594 Z M 642.109375 249.933594 " fill-opacity="1" fill-rule="evenodd"/><path fill="#6e3719" d="M 579.152344 241.984375 C 583.261719 235.40625 590.207031 232.207031 594.503906 234.949219 C 598.886719 237.691406 598.980469 245.273438 594.867188 251.855469 C 590.664062 258.523438 583.8125 261.722656 579.425781 258.980469 C 575.132812 256.238281 574.949219 248.65625 579.152344 241.984375 Z M 579.152344 241.984375 " fill-opacity="1" fill-rule="evenodd"/><path fill="#9a6a2a" d="M 579.152344 241.984375 C 582.804688 236.230469 588.5625 233.03125 592.859375 234.21875 C 595.414062 237.417969 594.867188 243.8125 591.210938 249.660156 C 587.558594 255.417969 582.074219 258.707031 578.054688 257.792969 C 575.132812 254.414062 575.496094 247.832031 579.152344 241.984375 Z M 579.152344 241.984375 " fill-opacity="1" fill-rule="evenodd"/><path fill="#6e3719" d="M 568.734375 179.484375 C 557.496094 169.710938 553.566406 155.730469 559.964844 148.417969 C 566.359375 141.019531 580.703125 143.027344 591.945312 152.804688 C 603.183594 162.671875 607.113281 176.5625 600.714844 183.871094 C 594.320312 191.273438 579.972656 189.261719 568.734375 179.484375 Z M 568.734375 179.484375 " fill-opacity="1" fill-rule="evenodd"/><path fill="#9a6a2a" d="M 568.734375 179.484375 C 558.867188 170.898438 554.664062 159.109375 558.042969 151.433594 C 564.898438 147.414062 576.777344 150.339844 586.644531 158.925781 C 596.511719 167.515625 600.988281 178.9375 597.972656 186.246094 C 590.847656 190.632812 578.601562 188.074219 568.734375 179.484375 Z M 568.734375 179.484375 " fill-opacity="1" fill-rule="evenodd"/><path fill="#6e3719" d="M 435.695312 226.085938 C 417.785156 240.523438 395.675781 242.808594 386.261719 231.113281 C 376.757812 219.507812 383.613281 198.308594 401.429688 183.871094 C 419.339844 169.34375 441.453125 167.152344 450.863281 178.753906 C 460.273438 190.449219 453.511719 211.648438 435.695312 226.085938 Z M 435.695312 226.085938 " fill-opacity="1" fill-rule="evenodd"/><path fill="#9a6a2a" d="M 435.695312 226.085938 C 419.980469 238.789062 401.066406 242.078125 390.28125 234.859375 C 386.078125 223.4375 393.664062 206.167969 409.289062 193.464844 C 424.914062 180.855469 443.371094 177.019531 453.605469 183.507812 C 458.449219 195.566406 451.320312 213.386719 435.695312 226.085938 Z M 435.695312 226.085938 " fill-opacity="1" fill-rule="evenodd"/><path fill="#6e3719" d="M 473.617188 263.730469 C 467.675781 272.046875 458.355469 275.703125 452.964844 271.773438 C 447.484375 267.9375 447.847656 257.976562 453.878906 249.660156 C 459.816406 241.253906 469.046875 237.691406 474.527344 241.527344 C 480.011719 245.457031 479.554688 255.417969 473.617188 263.730469 Z M 473.617188 263.730469 " fill-opacity="1" fill-rule="evenodd"/><path fill="#9a6a2a" d="M 473.617188 263.730469 C 468.40625 271.042969 460.640625 274.695312 455.15625 272.871094 C 451.960938 268.484375 453.148438 260.167969 458.355469 252.859375 C 463.5625 245.550781 471.058594 241.710938 476.265625 243.265625 C 479.828125 247.925781 478.824219 256.421875 473.617188 263.730469 Z M 473.617188 263.730469 " fill-opacity="1" fill-rule="evenodd"/><path fill="#6e3719" d="M 400.058594 294.800781 C 401.15625 300.828125 398.871094 306.3125 394.941406 307.042969 C 391.015625 307.773438 386.992188 303.480469 385.804688 297.449219 C 384.710938 291.417969 386.992188 285.9375 390.921875 285.207031 C 394.851562 284.472656 398.964844 288.769531 400.058594 294.800781 Z M 400.058594 294.800781 " fill-opacity="1" fill-rule="evenodd"/><path fill="#9a6a2a" d="M 400.058594 294.800781 C 401.066406 300.097656 399.421875 304.941406 396.3125 306.585938 C 393.117188 306.128906 390.101562 302.109375 389.09375 296.808594 C 388.089844 291.601562 389.550781 286.757812 392.382812 285.207031 C 395.855469 285.570312 399.144531 289.5 400.058594 294.800781 Z M 400.058594 294.800781 " fill-opacity="1" fill-rule="evenodd"/><path fill="#9a6a2a" d="M 651.0625 409.199219 C 647.222656 332.171875 605.011719 376.578125 584.269531 367.257812 C 418.882812 424.09375 558.136719 320.292969 551.191406 297.082031 C 547.261719 280.363281 547.171875 264.28125 552.011719 248.839844 C 539.039062 184.511719 511.078125 171.902344 533.191406 237.78125 C 536.753906 250.027344 518.664062 364.609375 486.316406 329.429688 C 460.367188 342.496094 434.417969 355.746094 413.035156 340.761719 C 401.523438 341.675781 390.007812 341.949219 376.667969 329.246094 C 358.027344 314.445312 343.316406 330.160156 329.335938 312.160156 C 326.871094 293.519531 327.328125 275.152344 330.25 257.425781 C 347.792969 255.875 343.410156 320.019531 364.699219 295.257812 C 368.71875 280.089844 376.757812 296.71875 385.164062 315.90625 C 391.652344 323.214844 405.542969 305.398438 410.84375 315.175781 C 421.441406 335.003906 464.296875 325.410156 468.773438 310.789062 C 480.742188 271.957031 496.734375 255.144531 491.066406 304.027344 C 490.152344 311.886719 505.871094 302.476562 510.621094 296.261719 C 518.023438 268.941406 528.4375 236.320312 515.828125 243.265625 C 508.976562 247.652344 500.296875 257.425781 503.496094 231.84375 C 503.585938 231.386719 500.386719 207.902344 486.316406 193.007812 C 477.636719 183.871094 486.226562 171.992188 485.585938 170.804688 C 482.113281 161.304688 464.753906 145.679688 458.902344 153.808594 C 454.425781 177.109375 439.441406 142.113281 399.695312 142.023438 C 420.4375 126.03125 444.925781 114.246094 472.152344 108.125 C 485.949219 105.109375 499.65625 103.644531 513.179688 103.738281 C 527.800781 123.839844 553.292969 139.648438 539.222656 159.476562 C 563.800781 185.972656 569.375 215.214844 564.988281 246.007812 C 583.082031 271.226562 573.121094 288.039062 569.191406 306.769531 C 519.941406 365.523438 571.203125 380.417969 610.21875 309.417969 C 612.410156 305.488281 591.945312 231.292969 625.203125 232.117188 C 614.238281 194.378906 590.117188 146.773438 636.078125 151.707031 C 663.304688 176.472656 683.5 209.546875 691.996094 248.199219 C 705.15625 307.589844 688.160156 366.527344 651.0625 409.199219 Z M 651.0625 409.199219 " fill-opacity="1" fill-rule="evenodd"/><path fill="#c97c2c" d="M 499.382812 140.5625 C 501.027344 167.609375 415.957031 134.53125 481.289062 125.210938 C 534.835938 122.925781 538.582031 152.621094 499.382812 140.5625 Z M 499.382812 140.5625 " fill-opacity="1" fill-rule="evenodd"/></svg>