<svg xmlns="http://www.w3.org/2000/svg" xmlns:xlink="http://www.w3.org/1999/xlink" width="1366" zoomAndPan="magnify" viewBox="0 0 1024.5 576" height="768" preserveAspectRatio="xMidYMid meet" version="1.0"><path fill="#d0d4dd" d="M 381.183594 148.960938 C 457.859375 76.824219 578.59375 80.511719 650.730469 157.183594 C 722.867188 233.859375 719.179688 354.496094 642.503906 426.730469 C 565.828125 498.867188 445.097656 495.179688 372.960938 418.410156 C 300.824219 341.734375 304.511719 221.097656 381.183594 148.960938 Z M 381.183594 148.960938 " fill-opacity="1" fill-rule="evenodd"/><path fill="#dee5ed" d="M 598.164062 253.621094 C 597.972656 320.746094 564.03125 340.128906 521.867188 281.605469 C 455.023438 265.910156 497.285156 202.566406 535.292969 195.097656 C 554.769531 191.316406 629.171875 202.566406 598.164062 253.621094 Z M 598.164062 253.621094 " fill-opacity="1" fill-rule="evenodd"/><path fill="#dee5ed" d="M 454.644531 312.804688 C 430.820312 336.25 450.769531 343.4375 478.09375 329.726562 C 508.0625 314.601562 494.449219 267.800781 454.644531 312.804688 Z M 454.644531 312.804688 " fill-opacity="1" fill-rule="evenodd"/><path fill="#dee5ed" d="M 411.25 238.964844 C 388.085938 248.988281 388.652344 263.832031 426.945312 285.007812 C 439.707031 308.644531 457.765625 288.316406 457.386719 278.484375 C 466.652344 268.367188 450.109375 259.765625 445.285156 247.945312 C 455.78125 235.84375 442.636719 229.320312 411.25 238.964844 Z M 411.25 238.964844 " fill-opacity="1" fill-rule="evenodd"/><path fill="#dee5ed" d="M 374.566406 179.6875 C 354.808594 199.164062 341.570312 226.769531 332.871094 260.238281 C 322.851562 312.804688 356.605469 250.59375 368.515625 245.773438 C 390.734375 238.398438 399.242188 223.839844 391.113281 200.675781 C 400.1875 194.152344 393.382812 160.117188 374.566406 179.6875 Z M 374.566406 179.6875 " fill-opacity="1" fill-rule="evenodd"/><path fill="#636361" d="M 462.777344 168.625 C 472.042969 178.457031 488.207031 178.363281 498.796875 168.4375 C 509.386719 158.414062 510.519531 142.339844 501.160156 132.414062 C 470.71875 99.984375 432.332031 136.289062 462.777344 168.625 Z M 462.777344 168.625 " fill-opacity="1" fill-rule="evenodd"/><path fill="#8f8f8d" d="M 462.777344 168.625 C 472.042969 178.457031 488.207031 178.363281 498.796875 168.4375 C 501.351562 165.976562 503.335938 163.234375 504.753906 160.304688 C 507.402344 147.351562 500.6875 134.398438 488.679688 130.238281 C 472.796875 124.757812 460.316406 128.160156 453.132812 135.535156 C 449.730469 144.800781 451.808594 156.996094 462.777344 168.625 Z M 462.777344 168.625 " fill-opacity="1" fill-rule="evenodd"/><path fill="#636361" d="M 353.105469 336.722656 C 350.457031 347.691406 357.925781 358.941406 369.746094 361.777344 C 381.5625 364.519531 393.285156 357.902344 395.839844 346.933594 C 404.539062 310.820312 361.707031 300.796875 353.105469 336.722656 Z M 353.105469 336.722656 " fill-opacity="1" fill-rule="evenodd"/><path fill="#8f8f8d" d="M 353.105469 336.722656 C 350.457031 347.691406 357.925781 358.941406 369.746094 361.777344 C 372.582031 362.441406 375.417969 362.535156 378.160156 362.15625 C 388.371094 358.089844 394.328125 347.5 391.679688 337.195312 C 388.277344 323.582031 380.144531 316.585938 371.730469 314.882812 C 363.789062 316.773438 356.226562 323.769531 353.105469 336.722656 Z M 353.105469 336.722656 " fill-opacity="1" fill-rule="evenodd"/><path fill="#636361" d="M 602.511719 181.105469 C 608.5625 190.464844 620.285156 194.90625 628.511719 191.125 C 636.832031 187.25 638.535156 176.566406 632.484375 167.207031 C 612.4375 136.574219 582.5625 150.566406 602.511719 181.105469 Z M 602.511719 181.105469 " fill-opacity="1" fill-rule="evenodd"/><path fill="#8f8f8d" d="M 602.511719 181.105469 C 608.5625 190.464844 620.285156 194.90625 628.511719 191.125 C 630.496094 190.179688 632.105469 188.855469 633.332031 187.25 C 635.980469 179.117188 632.011719 168.4375 623.59375 162.195312 C 612.4375 153.96875 603.269531 152.929688 597.597656 155.859375 C 594.570312 161.25 595.328125 170.136719 602.511719 181.105469 Z M 602.511719 181.105469 " fill-opacity="1" fill-rule="evenodd"/><path fill="#636361" d="M 643.261719 299.09375 C 638.4375 313.085938 643.261719 328.972656 654.039062 334.453125 C 664.722656 340.03125 677.390625 333.132812 682.210938 319.136719 C 698.097656 273.191406 659.050781 253.335938 643.261719 299.09375 Z M 643.261719 299.09375 " fill-opacity="1" fill-rule="evenodd"/><path fill="#8f8f8d" d="M 643.261719 299.09375 C 638.4375 313.085938 643.261719 328.972656 654.039062 334.453125 C 656.589844 335.777344 659.332031 336.441406 661.980469 336.441406 C 672.664062 332.5625 680.605469 319.609375 680.226562 305.808594 C 679.753906 287.464844 673.515625 276.878906 665.761719 273.285156 C 657.726562 274.609375 648.933594 282.550781 643.261719 299.09375 Z M 643.261719 299.09375 " fill-opacity="1" fill-rule="evenodd"/><path fill="#636361" d="M 470.152344 418.03125 C 462.398438 418.789062 455.78125 424.460938 455.496094 430.796875 C 455.117188 437.128906 461.074219 441.761719 468.828125 441.003906 C 494.257812 438.738281 495.488281 415.761719 470.152344 418.03125 Z M 470.152344 418.03125 " fill-opacity="1" fill-rule="evenodd"/><path fill="#8f8f8d" d="M 470.152344 418.03125 C 462.398438 418.789062 455.78125 424.460938 455.496094 430.796875 C 455.402344 432.308594 455.6875 433.726562 456.253906 435.050781 C 460.414062 439.304688 468.261719 440.34375 474.878906 437.222656 C 483.574219 433.0625 487.261719 427.769531 487.261719 423.324219 C 484.996094 419.734375 479.226562 417.273438 470.152344 418.03125 Z M 470.152344 418.03125 " fill-opacity="1" fill-rule="evenodd"/><path fill="#636361" d="M 527.253906 385.507812 C 514.871094 390.898438 509.671875 403.09375 515.722656 412.738281 C 521.675781 422.476562 536.613281 425.878906 549 420.488281 C 589.75 402.714844 567.816406 367.828125 527.253906 385.507812 Z M 527.253906 385.507812 " fill-opacity="1" fill-rule="evenodd"/><path fill="#8f8f8d" d="M 527.253906 385.507812 C 514.871094 390.898438 509.671875 403.09375 515.722656 412.738281 C 517.140625 415.101562 519.125 417.085938 521.394531 418.597656 C 532.929688 422.664062 547.394531 419.828125 555.242188 411.414062 C 565.640625 400.257812 566.398438 390.332031 561.859375 383.617188 C 554.105469 379.648438 541.910156 379.175781 527.253906 385.507812 Z M 527.253906 385.507812 " fill-opacity="1" fill-rule="evenodd"/></svg>