<svg xmlns="http://www.w3.org/2000/svg" xmlns:xlink="http://www.w3.org/1999/xlink" width="1366" zoomAndPan="magnify" viewBox="0 0 1024.5 576" height="768" preserveAspectRatio="xMidYMid meet" version="1.0"><defs><clipPath id="10e02e2a04"><path d="M 299.058594 92.402344 L 724.847656 92.402344 L 724.847656 518.195312 L 299.058594 518.195312 Z M 299.058594 92.402344 " clip-rule="nonzero"/></clipPath><clipPath id="00f7980904"><path d="M 299.058594 286 L 720 286 L 720 429 L 299.058594 429 Z M 299.058594 286 " clip-rule="nonzero"/></clipPath><clipPath id="df1f3e5b82"><path d="M 299.058594 322 L 466 322 L 466 379 L 299.058594 379 Z M 299.058594 322 " clip-rule="nonzero"/></clipPath><clipPath id="d272585d71"><path d="M 567 293 L 724.847656 293 L 724.847656 339 L 567 339 Z M 567 293 " clip-rule="nonzero"/></clipPath><clipPath id="cd36503090"><path d="M 403 92.402344 L 628 92.402344 L 628 153 L 403 153 Z M 403 92.402344 " clip-rule="nonzero"/></clipPath></defs><g clip-path="url(#10e02e2a04)"><path fill="#222572" d="M 512.007812 92.402344 C 629.511719 92.402344 724.847656 187.738281 724.847656 305.246094 C 724.847656 422.859375 629.511719 518.195312 512.007812 518.195312 C 394.394531 518.195312 299.058594 422.859375 299.058594 305.246094 C 299.058594 187.738281 394.394531 92.402344 512.007812 92.402344 Z M 512.007812 92.402344 " fill-opacity="1" fill-rule="evenodd"/></g><g clip-path="url(#00f7980904)"><path fill="#0050a1" d="M 719.992188 350.75 C 715.980469 369.121094 709.644531 386.539062 701.304688 402.796875 C 670.898438 410.925781 622.226562 396.570312 601.007812 411.140625 C 588.023438 420.113281 542.835938 437.214844 510 423.597656 C 495.007812 417.367188 424.273438 424.335938 404.210938 415.785156 C 373.488281 402.691406 360.609375 383.371094 327.246094 383.371094 L 313.839844 383.371094 C 304.335938 359.195312 299.058594 332.90625 299.058594 305.246094 C 299.058594 298.910156 299.375 292.574219 299.902344 286.242188 C 307.1875 291.519531 317.640625 302.289062 340.019531 302.289062 C 373.382812 302.289062 368 307.460938 392.914062 322.664062 C 421.105469 339.875 466.925781 333.75 500.285156 333.75 C 528.160156 333.75 565.957031 334.488281 589.816406 348.847656 C 602.695312 356.554688 694.019531 355.394531 719.992188 350.75 Z M 719.992188 350.75 " fill-opacity="1" fill-rule="evenodd"/></g><path fill="#0067b2" d="M 712.390625 377.355469 C 709.222656 386.117188 705.527344 394.5625 701.304688 402.796875 C 670.898438 410.925781 622.226562 396.570312 601.007812 411.140625 C 588.023438 420.113281 542.835938 437.214844 510 423.597656 C 495.007812 417.367188 424.273438 424.335938 404.210938 415.785156 C 379.71875 405.332031 366.519531 390.972656 345.300781 385.589844 L 345.300781 385.484375 C 394.394531 403.433594 437.363281 422.753906 488.460938 413.671875 C 517.496094 408.5 525.308594 417.789062 555.820312 415.46875 C 584.328125 413.355469 625.710938 392.558594 665.515625 391.921875 C 684.308594 391.5 694.761719 384.640625 712.390625 377.355469 Z M 712.390625 377.355469 " fill-opacity="1" fill-rule="evenodd"/><g clip-path="url(#df1f3e5b82)"><path fill="#222572" d="M 306.765625 362.46875 C 303.175781 349.480469 300.746094 335.96875 299.691406 322.136719 C 357.230469 339.558594 362.824219 320.976562 421.527344 357.398438 C 450.664062 375.453125 450.03125 349.058594 462.914062 355.921875 C 478.960938 364.578125 428.285156 388.015625 403.683594 375.242188 C 377.289062 361.519531 338.121094 354.550781 306.765625 362.46875 Z M 306.765625 362.46875 " fill-opacity="1" fill-rule="evenodd"/></g><g clip-path="url(#d272585d71)"><path fill="#0067b2" d="M 724.53125 293.527344 C 724.742188 297.433594 724.847656 301.339844 724.847656 305.246094 C 724.847656 313.902344 724.320312 322.347656 723.371094 330.6875 C 705.316406 337.023438 672.90625 340.71875 656.222656 335.96875 C 638.066406 330.792969 626.769531 321.1875 607.449219 321.1875 C 592.5625 321.1875 585.488281 329.105469 573.664062 325.832031 C 546.847656 318.335938 607.34375 295.742188 647.671875 313.902344 C 678.078125 327.628906 678.394531 296.058594 724.53125 293.527344 Z M 724.53125 293.527344 " fill-opacity="1" fill-rule="evenodd"/></g><path fill="#0067b2" d="M 655.167969 147.828125 C 681.984375 172.113281 702.46875 203.152344 714.082031 238.308594 C 709.222656 243.058594 703.101562 248.234375 698.878906 249.078125 C 693.914062 250.132812 694.019531 252.351562 681.035156 253.617188 C 638.59375 257.628906 657.808594 254.777344 626.980469 273.042969 C 587.175781 296.691406 566.273438 240 513.589844 280.011719 C 498.703125 291.308594 476.109375 288.667969 459.21875 281.808594 C 404.421875 259.847656 365.148438 282.335938 307.503906 245.699219 C 318.484375 208.113281 339.492188 174.75 367.578125 148.78125 C 386.582031 170 413.609375 174.539062 443.804688 171.164062 C 462.277344 169.050781 472.835938 159.546875 502.082031 159.546875 C 525.308594 159.546875 533.753906 164.089844 554.660156 164.40625 C 568.488281 164.617188 569.125 150.46875 608.714844 155.960938 C 628.457031 158.703125 640.808594 153.847656 655.167969 147.828125 Z M 655.167969 147.828125 " fill-opacity="1" fill-rule="evenodd"/><path fill="#0050a1" d="M 697.1875 200.300781 C 702.574219 209.804688 707.21875 219.621094 711.125 229.863281 C 708.0625 233.664062 704.050781 236.726562 699.617188 238.519531 C 675.4375 248.550781 646.300781 237.78125 621.804688 250.238281 C 608.609375 256.890625 595.199219 272.9375 557.402344 257.628906 C 511.265625 238.835938 448.976562 279.378906 386.476562 247.8125 C 371.378906 240.105469 329.675781 227.222656 310.039062 237.570312 C 313.839844 226.273438 318.484375 215.503906 323.972656 205.15625 C 347.304688 211.914062 347.832031 213.5 370.636719 226.273438 C 402.417969 244.222656 424.800781 237.359375 457.84375 235.246094 C 481.601562 233.664062 497.542969 233.03125 520.136719 239.363281 C 534.070312 243.269531 552.863281 242.109375 566.167969 235.5625 C 596.679688 220.570312 616.105469 248.445312 656.328125 216.453125 C 675.332031 201.355469 684.941406 212.441406 697.1875 200.300781 Z M 697.1875 200.300781 " fill-opacity="1" fill-rule="evenodd"/><path fill="#138fcf" d="M 668.894531 161.449219 C 671.636719 164.300781 674.171875 167.363281 676.707031 170.421875 C 664.25 178.550781 646.300781 197.769531 600.796875 197.769531 C 567.433594 197.769531 538.824219 194.917969 507.148438 203.890625 C 488.039062 209.277344 476.003906 191.539062 433.878906 205.792969 C 398.511719 217.722656 372.960938 208.324219 345.828125 183.199219 C 345.089844 182.671875 342.871094 180.664062 340.65625 178.976562 C 344.5625 173.589844 348.679688 168.523438 353.007812 163.667969 C 379.402344 167.679688 385.417969 190.058594 431.34375 190.058594 C 464.917969 190.058594 477.480469 174.75 512.535156 176.96875 C 536.605469 178.550781 544.628906 193.96875 575.5625 183.09375 C 613.675781 169.683594 614.945312 178.128906 643.871094 173.0625 C 647.355469 172.429688 660.976562 165.988281 668.894531 161.449219 Z M 668.894531 161.449219 " fill-opacity="1" fill-rule="evenodd"/><g clip-path="url(#cd36503090)"><path fill="#0067b2" d="M 512.007812 92.402344 C 554.554688 92.402344 594.144531 104.859375 627.402344 126.398438 C 610.933594 140.121094 575.140625 143.605469 559.199219 141.707031 C 547.480469 140.332031 544.839844 140.332031 532.59375 140.332031 C 483.183594 140.332031 461.222656 176.96875 403.261719 122.175781 C 435.039062 103.277344 472.203125 92.402344 512.007812 92.402344 Z M 512.007812 92.402344 " fill-opacity="1" fill-rule="evenodd"/></g><path fill="#138fcf" d="M 582.53125 104.332031 C 591.714844 107.605469 600.691406 111.40625 609.242188 115.839844 C 607.027344 117.316406 605.019531 118.585938 604.175781 119.007812 C 589.605469 125.660156 577.570312 124.074219 561.417969 126.503906 C 549.800781 128.296875 513.90625 123.546875 506.621094 127.136719 C 462.171875 149.414062 459.957031 141.179688 423.953125 118.796875 C 421.527344 117.316406 418.464844 116.261719 415.507812 115.417969 C 418.675781 113.832031 421.84375 112.355469 425.117188 110.878906 C 433.351562 109.925781 445.597656 115.734375 450.664062 122.597656 C 457 131.359375 472.625 129.140625 479.699219 122.914062 C 505.25 100.320312 527.84375 126.925781 553.921875 118.480469 C 564.898438 114.890625 575.773438 108.660156 582.53125 104.332031 Z M 582.53125 104.332031 " fill-opacity="1" fill-rule="evenodd"/><path fill="#0067b2" d="M 482.65625 188.792969 C 493.53125 184.886719 512.429688 186.046875 506.9375 196.921875 C 504.828125 201.039062 489.941406 196.605469 481.707031 194.179688 C 475.371094 192.382812 473.257812 192.171875 482.65625 188.792969 Z M 482.65625 188.792969 " fill-opacity="1" fill-rule="evenodd"/><path fill="#138fcf" d="M 551.914062 209.0625 C 529.53125 200.828125 526.785156 218.777344 533.015625 218.671875 C 534.070312 218.566406 544.417969 221.523438 552.335938 221.417969 C 564.6875 221.101562 564.265625 213.710938 551.914062 209.0625 Z M 551.914062 209.0625 " fill-opacity="1" fill-rule="evenodd"/><path fill="#138fcf" d="M 621.699219 381.367188 C 626.453125 379.992188 645.351562 358.984375 646.300781 379.464844 C 646.722656 388.335938 619.484375 392.453125 616.84375 388.863281 C 612.09375 382.316406 621.277344 381.472656 621.699219 381.367188 Z M 621.699219 381.367188 " fill-opacity="1" fill-rule="evenodd"/><path fill="#138fcf" d="M 605.019531 378.515625 C 607.765625 378.515625 616.421875 362.785156 596.679688 367.851562 C 595.09375 368.273438 565.324219 389.179688 577.253906 391.183594 C 594.882812 394.035156 582.53125 378.304688 605.019531 378.515625 Z M 605.019531 378.515625 " fill-opacity="1" fill-rule="evenodd"/><path fill="#138fcf" d="M 515.277344 368.0625 C 516.863281 376.296875 503.347656 377.355469 497.121094 373.660156 C 482.023438 364.472656 487.195312 332.695312 531.960938 346.101562 C 546.953125 350.539062 573.242188 338.289062 575.457031 365.953125 C 576.511719 378.304688 572.078125 380.734375 564.160156 389.707031 C 556.453125 398.46875 539.246094 402.058594 539.773438 389.601562 C 540.089844 382.632812 528.582031 386.644531 527.632812 382.84375 C 524.253906 369.542969 534.8125 375.03125 545.789062 364.683594 C 553.074219 357.824219 510.527344 342.726562 515.277344 368.0625 Z M 515.277344 368.0625 " fill-opacity="1" fill-rule="evenodd"/><path fill="#138fcf" d="M 410.546875 419.796875 C 397.242188 425.074219 405.691406 440.171875 431.132812 440.171875 C 438.628906 440.171875 473.574219 443.445312 462.492188 429.613281 C 452.355469 417.050781 424.378906 414.304688 410.546875 419.796875 Z M 410.546875 419.796875 " fill-opacity="1" fill-rule="evenodd"/><path fill="#0050a1" d="M 484.238281 451.679688 C 482.023438 467.832031 514.222656 458.226562 520.558594 458.4375 C 523.089844 458.542969 545.894531 452.949219 528.582031 446.613281 C 518.550781 442.917969 486.667969 434.472656 484.238281 451.679688 Z M 484.238281 451.679688 " fill-opacity="1" fill-rule="evenodd"/><path fill="#0050a1" d="M 361.769531 431.410156 C 357.757812 442.917969 369.792969 444.078125 378.980469 448.195312 C 387.636719 452.101562 393.546875 445.238281 385.628906 436.160156 C 383.414062 433.519531 367.578125 414.621094 361.769531 431.410156 Z M 361.769531 431.410156 " fill-opacity="1" fill-rule="evenodd"/></svg>