<svg xmlns="http://www.w3.org/2000/svg" xmlns:xlink="http://www.w3.org/1999/xlink" width="1366" zoomAndPan="magnify" viewBox="0 0 1024.5 576" height="768" preserveAspectRatio="xMidYMid meet" version="1.0"><defs><clipPath id="d0c6d1c40e"><path d="M 282.863281 59 L 715 59 L 715 492 L 282.863281 492 Z M 282.863281 59 " clip-rule="nonzero"/></clipPath></defs><g clip-path="url(#d0c6d1c40e)"><path fill="#93b1d7" d="M 714.511719 275.5 C 714.511719 279.035156 714.425781 282.5625 714.253906 286.089844 C 714.078125 289.617188 713.820312 293.140625 713.472656 296.652344 C 713.125 300.167969 712.695312 303.671875 712.175781 307.164062 C 711.65625 310.660156 711.054688 314.136719 710.363281 317.601562 C 709.675781 321.066406 708.902344 324.511719 708.042969 327.9375 C 707.1875 331.363281 706.242188 334.765625 705.21875 338.144531 C 704.191406 341.523438 703.085938 344.875 701.894531 348.203125 C 700.707031 351.527344 699.433594 354.820312 698.082031 358.082031 C 696.730469 361.347656 695.300781 364.574219 693.789062 367.765625 C 692.28125 370.960938 690.691406 374.113281 689.027344 377.226562 C 687.363281 380.34375 685.621094 383.414062 683.804688 386.445312 C 681.992188 389.472656 680.101562 392.457031 678.140625 395.390625 C 676.175781 398.328125 674.144531 401.214844 672.039062 404.050781 C 669.933594 406.886719 667.761719 409.671875 665.523438 412.402344 C 663.28125 415.132812 660.976562 417.804688 658.601562 420.421875 C 656.230469 423.039062 653.796875 425.597656 651.296875 428.09375 C 648.800781 430.589844 646.242188 433.023438 643.625 435.398438 C 641.007812 437.769531 638.335938 440.074219 635.605469 442.316406 C 632.875 444.554688 630.089844 446.726562 627.253906 448.832031 C 624.417969 450.933594 621.53125 452.96875 618.59375 454.929688 C 615.65625 456.890625 612.671875 458.78125 609.644531 460.597656 C 606.613281 462.414062 603.542969 464.152344 600.425781 465.816406 C 597.3125 467.484375 594.15625 469.070312 590.964844 470.578125 C 587.773438 472.089844 584.542969 473.519531 581.28125 474.871094 C 578.015625 476.222656 574.722656 477.496094 571.398438 478.683594 C 568.070312 479.875 564.71875 480.980469 561.339844 482.007812 C 557.957031 483.03125 554.554688 483.972656 551.128906 484.832031 C 547.703125 485.691406 544.257812 486.464844 540.792969 487.152344 C 537.328125 487.839844 533.851562 488.445312 530.355469 488.964844 C 526.863281 489.480469 523.359375 489.914062 519.84375 490.257812 C 516.328125 490.605469 512.804688 490.867188 509.277344 491.039062 C 505.75 491.210938 502.21875 491.296875 498.6875 491.296875 C 495.15625 491.296875 491.625 491.210938 488.097656 491.039062 C 484.570312 490.867188 481.046875 490.605469 477.535156 490.257812 C 474.019531 489.914062 470.515625 489.480469 467.019531 488.964844 C 463.527344 488.445312 460.046875 487.839844 456.582031 487.152344 C 453.117188 486.464844 449.671875 485.691406 446.246094 484.832031 C 442.820312 483.972656 439.417969 483.03125 436.039062 482.007812 C 432.65625 480.980469 429.304688 479.875 425.980469 478.683594 C 422.652344 477.496094 419.359375 476.222656 416.09375 474.871094 C 412.832031 473.519531 409.605469 472.089844 406.410156 470.578125 C 403.21875 469.070312 400.0625 467.484375 396.949219 465.816406 C 393.835938 464.152344 390.761719 462.414062 387.730469 460.597656 C 384.703125 458.78125 381.71875 456.890625 378.78125 454.929688 C 375.84375 452.96875 372.957031 450.933594 370.121094 448.832031 C 367.285156 446.726562 364.5 444.554688 361.769531 442.316406 C 359.039062 440.074219 356.367188 437.769531 353.75 435.398438 C 351.132812 433.023438 348.574219 430.589844 346.078125 428.09375 C 343.578125 425.597656 341.144531 423.039062 338.773438 420.421875 C 336.402344 417.804688 334.09375 415.132812 331.855469 412.402344 C 329.613281 409.671875 327.441406 406.886719 325.335938 404.050781 C 323.230469 401.214844 321.199219 398.328125 319.238281 395.390625 C 317.273438 392.457031 315.386719 389.472656 313.570312 386.445312 C 311.753906 383.414062 310.011719 380.34375 308.347656 377.226562 C 306.683594 374.113281 305.09375 370.960938 303.585938 367.765625 C 302.074219 364.574219 300.644531 361.347656 299.292969 358.082031 C 297.941406 354.820312 296.671875 351.527344 295.480469 348.203125 C 294.289062 344.875 293.183594 341.523438 292.15625 338.144531 C 291.132812 334.765625 290.191406 331.363281 289.332031 327.9375 C 288.472656 324.511719 287.699219 321.066406 287.011719 317.601562 C 286.320312 314.136719 285.71875 310.660156 285.199219 307.164062 C 284.683594 303.671875 284.25 300.167969 283.902344 296.652344 C 283.558594 293.140625 283.296875 289.617188 283.125 286.089844 C 282.949219 282.5625 282.863281 279.035156 282.863281 275.5 C 282.863281 271.96875 282.949219 268.441406 283.125 264.914062 C 283.296875 261.386719 283.558594 257.863281 283.902344 254.351562 C 284.25 250.835938 284.683594 247.332031 285.199219 243.835938 C 285.71875 240.34375 286.320312 236.867188 287.011719 233.402344 C 287.699219 229.9375 288.472656 226.492188 289.332031 223.066406 C 290.191406 219.640625 291.132812 216.238281 292.15625 212.859375 C 293.183594 209.480469 294.289062 206.128906 295.480469 202.800781 C 296.671875 199.476562 297.941406 196.183594 299.292969 192.917969 C 300.644531 189.65625 302.074219 186.429688 303.585938 183.238281 C 305.09375 180.042969 306.683594 176.890625 308.347656 173.777344 C 310.011719 170.660156 311.753906 167.589844 313.570312 164.558594 C 315.386719 161.53125 317.273438 158.546875 319.238281 155.609375 C 321.199219 152.675781 323.230469 149.789062 325.335938 146.953125 C 327.441406 144.113281 329.613281 141.332031 331.855469 138.601562 C 334.09375 135.871094 336.402344 133.199219 338.773438 130.582031 C 341.144531 127.964844 343.578125 125.40625 346.078125 122.910156 C 348.574219 120.414062 351.132812 117.976562 353.75 115.605469 C 356.367188 113.234375 359.039062 110.929688 361.769531 108.6875 C 364.5 106.449219 367.285156 104.277344 370.121094 102.171875 C 372.957031 100.066406 375.84375 98.035156 378.78125 96.074219 C 381.71875 94.109375 384.703125 92.222656 387.730469 90.40625 C 390.761719 88.589844 393.835938 86.851562 396.949219 85.1875 C 400.0625 83.519531 403.21875 81.933594 406.410156 80.421875 C 409.605469 78.914062 412.832031 77.484375 416.09375 76.132812 C 419.359375 74.78125 422.652344 73.507812 425.980469 72.320312 C 429.304688 71.128906 432.65625 70.023438 436.039062 68.996094 C 439.417969 67.972656 442.820312 67.03125 446.246094 66.171875 C 449.671875 65.3125 453.117188 64.539062 456.582031 63.851562 C 460.046875 63.160156 463.527344 62.558594 467.019531 62.039062 C 470.515625 61.523438 474.019531 61.089844 477.535156 60.742188 C 481.046875 60.398438 484.570312 60.136719 488.097656 59.964844 C 491.625 59.792969 495.15625 59.703125 498.6875 59.703125 C 502.21875 59.703125 505.75 59.792969 509.277344 59.964844 C 512.804688 60.136719 516.328125 60.398438 519.84375 60.742188 C 523.359375 61.089844 526.863281 61.523438 530.355469 62.039062 C 533.851562 62.558594 537.328125 63.160156 540.792969 63.851562 C 544.257812 64.539062 547.703125 65.3125 551.128906 66.171875 C 554.554688 67.03125 557.957031 67.972656 561.339844 68.996094 C 564.71875 70.023438 568.070312 71.128906 571.398438 72.320312 C 574.722656 73.507812 578.015625 74.78125 581.28125 76.132812 C 584.542969 77.484375 587.773438 78.914062 590.964844 80.421875 C 594.15625 81.933594 597.3125 83.519531 600.425781 85.1875 C 603.542969 86.851562 606.613281 88.589844 609.644531 90.40625 C 612.671875 92.222656 615.65625 94.109375 618.59375 96.074219 C 621.53125 98.035156 624.417969 100.066406 627.253906 102.171875 C 630.089844 104.277344 632.875 106.449219 635.605469 108.6875 C 638.335938 110.929688 641.007812 113.234375 643.625 115.605469 C 646.242188 117.976562 648.800781 120.414062 651.296875 122.910156 C 653.796875 125.40625 656.230469 127.964844 658.601562 130.582031 C 660.976562 133.199219 663.28125 135.871094 665.523438 138.601562 C 667.761719 141.332031 669.933594 144.113281 672.039062 146.953125 C 674.144531 149.789062 676.175781 152.675781 678.140625 155.609375 C 680.101562 158.546875 681.992188 161.53125 683.804688 164.558594 C 685.621094 167.589844 687.363281 170.660156 689.027344 173.777344 C 690.691406 176.890625 692.28125 180.042969 693.789062 183.238281 C 695.300781 186.429688 696.730469 189.65625 698.082031 192.917969 C 699.433594 196.183594 700.707031 199.476562 701.894531 202.800781 C 703.085938 206.128906 704.191406 209.480469 705.21875 212.859375 C 706.242188 216.238281 707.1875 219.640625 708.042969 223.066406 C 708.902344 226.492188 709.675781 229.9375 710.363281 233.402344 C 711.054688 236.867188 711.65625 240.34375 712.175781 243.835938 C 712.695312 247.332031 713.125 250.835938 713.472656 254.351562 C 713.820312 257.863281 714.078125 261.386719 714.25 264.914062 C 714.425781 268.441406 714.511719 271.96875 714.511719 275.5 Z M 714.511719 275.5 " fill-opacity="1" fill-rule="nonzero"/></g><path fill="#7d97b8" d="M 636.816406 109.578125 C 713.074219 201.171875 700.601562 337.125 608.996094 413.371094 C 528.902344 480.03125 412.839844 480.03125 332.984375 413.371094 C 409.242188 504.964844 545.210938 517.433594 636.816406 441.1875 C 728.421875 364.9375 740.890625 229.226562 664.632812 137.390625 C 656.238281 127.320312 646.886719 117.96875 636.816406 109.578125 Z M 636.816406 109.578125 " fill-opacity="1" fill-rule="nonzero"/><path fill="#7598b2" d="M 512.597656 129.238281 C 582.140625 129.238281 589.09375 150.101562 596.046875 191.820312 C 602.285156 229.703125 637.292969 290.367188 711.394531 311.707031 C 731.539062 194.21875 652.402344 82.722656 534.898438 62.582031 C 508.039062 58.265625 480.941406 58.746094 454.324219 64.261719 C 454.324219 91.113281 462.71875 129.238281 512.597656 129.238281 Z M 512.597656 129.238281 " fill-opacity="1" fill-rule="nonzero"/><path fill="#617e94" d="M 636.816406 109.578125 C 680.699219 162.328125 697.007812 232.820312 680.460938 299.480469 C 690.292969 304.515625 700.84375 308.832031 711.394531 311.949219 C 724.34375 235.9375 696.046875 158.730469 636.816406 109.578125 Z M 636.816406 109.578125 " fill-opacity="1" fill-rule="nonzero"/><path fill="#7598b2" d="M 443.054688 150.101562 C 443.054688 151.011719 442.996094 151.917969 442.886719 152.824219 C 442.773438 153.730469 442.605469 154.632812 442.386719 155.527344 C 442.164062 156.417969 441.886719 157.300781 441.554688 158.171875 C 441.226562 159.046875 440.84375 159.902344 440.40625 160.742188 C 439.96875 161.585938 439.484375 162.40625 438.949219 163.210938 C 438.410156 164.015625 437.824219 164.792969 437.191406 165.550781 C 436.558594 166.308594 435.882812 167.039062 435.160156 167.746094 C 434.4375 168.449219 433.675781 169.121094 432.867188 169.765625 C 432.0625 170.410156 431.222656 171.023438 430.339844 171.601562 C 429.460938 172.179688 428.546875 172.71875 427.601562 173.226562 C 426.652344 173.730469 425.675781 174.199219 424.671875 174.628906 C 423.667969 175.058594 422.640625 175.449219 421.589844 175.796875 C 420.535156 176.144531 419.464844 176.453125 418.375 176.714844 C 417.285156 176.980469 416.183594 177.203125 415.066406 177.378906 C 413.949219 177.558594 412.824219 177.691406 411.691406 177.78125 C 410.554688 177.867188 409.421875 177.914062 408.28125 177.914062 C 407.144531 177.914062 406.007812 177.867188 404.875 177.78125 C 403.738281 177.691406 402.613281 177.558594 401.5 177.378906 C 400.382812 177.203125 399.277344 176.980469 398.1875 176.714844 C 397.097656 176.453125 396.027344 176.144531 394.976562 175.796875 C 393.921875 175.449219 392.894531 175.058594 391.890625 174.628906 C 390.886719 174.199219 389.910156 173.730469 388.964844 173.226562 C 388.015625 172.71875 387.101562 172.179688 386.222656 171.601562 C 385.34375 171.023438 384.5 170.410156 383.695312 169.765625 C 382.890625 169.121094 382.125 168.449219 381.402344 167.746094 C 380.679688 167.039062 380.003906 166.308594 379.371094 165.550781 C 378.738281 164.792969 378.152344 164.015625 377.617188 163.210938 C 377.078125 162.40625 376.59375 161.585938 376.15625 160.742188 C 375.722656 159.902344 375.335938 159.046875 375.007812 158.171875 C 374.675781 157.300781 374.398438 156.417969 374.179688 155.527344 C 373.957031 154.632812 373.789062 153.730469 373.675781 152.824219 C 373.566406 151.917969 373.511719 151.011719 373.511719 150.101562 C 373.511719 149.1875 373.566406 148.28125 373.675781 147.375 C 373.789062 146.46875 373.957031 145.566406 374.179688 144.671875 C 374.398438 143.78125 374.675781 142.898438 375.007812 142.027344 C 375.335938 141.152344 375.722656 140.296875 376.15625 139.457031 C 376.59375 138.613281 377.078125 137.792969 377.617188 136.988281 C 378.152344 136.183594 378.738281 135.40625 379.371094 134.648438 C 380.003906 133.890625 380.679688 133.160156 381.402344 132.453125 C 382.125 131.75 382.890625 131.078125 383.695312 130.433594 C 384.5 129.789062 385.34375 129.175781 386.222656 128.597656 C 387.101562 128.019531 388.015625 127.480469 388.964844 126.972656 C 389.910156 126.46875 390.886719 126 391.890625 125.570312 C 392.894531 125.140625 393.921875 124.75 394.976562 124.402344 C 396.027344 124.054688 397.097656 123.746094 398.1875 123.484375 C 399.277344 123.21875 400.382812 122.996094 401.5 122.820312 C 402.613281 122.640625 403.738281 122.507812 404.875 122.417969 C 406.007812 122.332031 407.144531 122.285156 408.28125 122.285156 C 409.421875 122.285156 410.554688 122.332031 411.691406 122.417969 C 412.824219 122.507812 413.949219 122.640625 415.066406 122.820312 C 416.183594 122.996094 417.285156 123.21875 418.375 123.484375 C 419.464844 123.746094 420.535156 124.054688 421.589844 124.402344 C 422.640625 124.75 423.667969 125.140625 424.671875 125.570312 C 425.675781 126 426.652344 126.46875 427.601562 126.972656 C 428.546875 127.480469 429.460938 128.019531 430.339844 128.597656 C 431.222656 129.175781 432.0625 129.789062 432.867188 130.433594 C 433.675781 131.078125 434.4375 131.75 435.160156 132.453125 C 435.882812 133.160156 436.558594 133.890625 437.191406 134.648438 C 437.824219 135.40625 438.410156 136.183594 438.949219 136.988281 C 439.484375 137.792969 439.96875 138.613281 440.40625 139.457031 C 440.84375 140.296875 441.226562 141.152344 441.554688 142.027344 C 441.886719 142.898438 442.164062 143.78125 442.386719 144.671875 C 442.605469 145.566406 442.773438 146.46875 442.886719 147.375 C 442.996094 148.28125 443.054688 149.1875 443.054688 150.101562 Z M 443.054688 150.101562 " fill-opacity="1" fill-rule="nonzero"/><path fill="#7598b2" d="M 484.777344 393.949219 C 414.277344 376.207031 539.214844 278.378906 450.007812 233.78125 C 380.945312 199.253906 318.835938 276.460938 288.621094 324.414062 C 315.71875 440.464844 431.542969 512.640625 547.609375 485.542969 C 572.066406 479.789062 595.328125 469.957031 616.433594 456.292969 C 646.648438 301.398438 537.535156 407.136719 484.777344 393.949219 Z M 484.777344 393.949219 " fill-opacity="1" fill-rule="nonzero"/><path fill="#617e94" d="M 470.871094 463.484375 C 420.511719 463.484375 371.832031 445.980469 332.984375 413.851562 C 403.007812 497.773438 524.585938 516.234375 616.191406 456.53125 C 620.269531 438.789062 621.949219 420.804688 620.988281 402.582031 C 580.941406 441.664062 526.984375 463.484375 470.871094 463.484375 Z M 470.871094 463.484375 " fill-opacity="1" fill-rule="nonzero"/><path fill="#7598b2" d="M 568.230469 240.734375 C 568.230469 241.644531 568.1875 242.554688 568.097656 243.460938 C 568.007812 244.367188 567.875 245.265625 567.695312 246.160156 C 567.519531 247.054688 567.296875 247.9375 567.035156 248.808594 C 566.769531 249.679688 566.460938 250.535156 566.113281 251.378906 C 565.765625 252.21875 565.375 253.042969 564.945312 253.847656 C 564.515625 254.648438 564.050781 255.429688 563.542969 256.1875 C 563.035156 256.945312 562.496094 257.675781 561.917969 258.378906 C 561.339844 259.082031 560.726562 259.757812 560.082031 260.402344 C 559.441406 261.046875 558.765625 261.65625 558.0625 262.234375 C 557.355469 262.8125 556.625 263.355469 555.867188 263.859375 C 555.109375 264.367188 554.332031 264.835938 553.527344 265.265625 C 552.722656 265.695312 551.902344 266.082031 551.058594 266.429688 C 550.21875 266.78125 549.359375 267.085938 548.488281 267.351562 C 547.617188 267.613281 546.734375 267.835938 545.839844 268.015625 C 544.945312 268.191406 544.046875 268.324219 543.140625 268.414062 C 542.234375 268.503906 541.324219 268.546875 540.414062 268.546875 C 539.503906 268.546875 538.59375 268.503906 537.6875 268.414062 C 536.78125 268.324219 535.878906 268.191406 534.988281 268.015625 C 534.09375 267.835938 533.210938 267.613281 532.339844 267.351562 C 531.46875 267.085938 530.609375 266.78125 529.769531 266.429688 C 528.925781 266.082031 528.105469 265.695312 527.300781 265.265625 C 526.496094 264.835938 525.71875 264.367188 524.960938 263.859375 C 524.203125 263.355469 523.472656 262.8125 522.765625 262.234375 C 522.0625 261.65625 521.386719 261.046875 520.742188 260.402344 C 520.101562 259.757812 519.488281 259.082031 518.910156 258.378906 C 518.332031 257.675781 517.789062 256.945312 517.285156 256.1875 C 516.777344 255.429688 516.3125 254.648438 515.882812 253.847656 C 515.453125 253.042969 515.0625 252.21875 514.714844 251.378906 C 514.367188 250.535156 514.058594 249.679688 513.792969 248.808594 C 513.53125 247.9375 513.308594 247.054688 513.132812 246.160156 C 512.953125 245.265625 512.820312 244.367188 512.730469 243.460938 C 512.640625 242.554688 512.597656 241.644531 512.597656 240.734375 C 512.597656 239.824219 512.640625 238.914062 512.730469 238.007812 C 512.820312 237.101562 512.953125 236.203125 513.132812 235.308594 C 513.308594 234.414062 513.53125 233.53125 513.792969 232.660156 C 514.058594 231.789062 514.367188 230.933594 514.714844 230.089844 C 515.0625 229.25 515.453125 228.425781 515.882812 227.621094 C 516.3125 226.820312 516.777344 226.039062 517.285156 225.28125 C 517.789062 224.523438 518.332031 223.792969 518.910156 223.089844 C 519.488281 222.386719 520.101562 221.710938 520.742188 221.066406 C 521.386719 220.421875 522.0625 219.8125 522.765625 219.234375 C 523.472656 218.65625 524.203125 218.113281 524.960938 217.609375 C 525.71875 217.101562 526.496094 216.632812 527.300781 216.203125 C 528.105469 215.773438 528.925781 215.386719 529.769531 215.039062 C 530.609375 214.6875 531.46875 214.382812 532.339844 214.117188 C 533.210938 213.855469 534.09375 213.632812 534.988281 213.453125 C 535.878906 213.277344 536.78125 213.144531 537.6875 213.054688 C 538.59375 212.964844 539.503906 212.921875 540.414062 212.921875 C 541.324219 212.921875 542.234375 212.964844 543.140625 213.054688 C 544.046875 213.144531 544.945312 213.277344 545.839844 213.453125 C 546.734375 213.632812 547.617188 213.855469 548.488281 214.117188 C 549.359375 214.382812 550.21875 214.6875 551.058594 215.039062 C 551.902344 215.386719 552.722656 215.773438 553.527344 216.203125 C 554.332031 216.632812 555.109375 217.101562 555.867188 217.609375 C 556.625 218.113281 557.355469 218.65625 558.0625 219.234375 C 558.765625 219.8125 559.441406 220.421875 560.082031 221.066406 C 560.726562 221.710938 561.339844 222.386719 561.917969 223.089844 C 562.496094 223.792969 563.035156 224.523438 563.542969 225.28125 C 564.050781 226.039062 564.515625 226.820312 564.945312 227.621094 C 565.375 228.425781 565.765625 229.25 566.113281 230.089844 C 566.460938 230.933594 566.769531 231.789062 567.035156 232.660156 C 567.296875 233.53125 567.519531 234.414062 567.695312 235.308594 C 567.875 236.203125 568.007812 237.101562 568.097656 238.007812 C 568.1875 238.914062 568.230469 239.824219 568.230469 240.734375 Z M 568.230469 240.734375 " fill-opacity="1" fill-rule="nonzero"/><path fill="#7598b2" d="M 658.878906 331.128906 C 658.878906 331.8125 658.84375 332.496094 658.777344 333.175781 C 658.710938 333.855469 658.609375 334.527344 658.476562 335.199219 C 658.34375 335.867188 658.175781 336.53125 657.980469 337.183594 C 657.78125 337.839844 657.550781 338.480469 657.289062 339.113281 C 657.027344 339.742188 656.734375 340.359375 656.414062 340.960938 C 656.089844 341.566406 655.742188 342.152344 655.359375 342.71875 C 654.980469 343.285156 654.574219 343.835938 654.140625 344.363281 C 653.707031 344.890625 653.25 345.398438 652.765625 345.878906 C 652.285156 346.363281 651.777344 346.820312 651.25 347.253906 C 650.722656 347.6875 650.171875 348.09375 649.605469 348.472656 C 649.035156 348.855469 648.453125 349.203125 647.847656 349.527344 C 647.246094 349.847656 646.628906 350.140625 646 350.402344 C 645.367188 350.664062 644.722656 350.894531 644.070312 351.089844 C 643.417969 351.289062 642.753906 351.457031 642.085938 351.589844 C 641.414062 351.722656 640.738281 351.824219 640.058594 351.890625 C 639.378906 351.957031 638.699219 351.988281 638.015625 351.988281 C 637.332031 351.988281 636.648438 351.957031 635.96875 351.890625 C 635.289062 351.824219 634.613281 351.722656 633.945312 351.589844 C 633.273438 351.457031 632.613281 351.289062 631.957031 351.089844 C 631.304688 350.894531 630.660156 350.664062 630.03125 350.402344 C 629.398438 350.140625 628.78125 349.847656 628.179688 349.527344 C 627.578125 349.203125 626.992188 348.855469 626.421875 348.472656 C 625.855469 348.09375 625.308594 347.6875 624.777344 347.253906 C 624.25 346.820312 623.746094 346.363281 623.261719 345.878906 C 622.777344 345.398438 622.320312 344.890625 621.886719 344.363281 C 621.453125 343.835938 621.046875 343.285156 620.667969 342.71875 C 620.289062 342.152344 619.9375 341.566406 619.613281 340.960938 C 619.292969 340.359375 619 339.742188 618.738281 339.113281 C 618.476562 338.480469 618.25 337.839844 618.050781 337.183594 C 617.851562 336.53125 617.683594 335.867188 617.550781 335.199219 C 617.417969 334.527344 617.320312 333.855469 617.25 333.175781 C 617.183594 332.496094 617.152344 331.8125 617.152344 331.128906 C 617.152344 330.445312 617.183594 329.765625 617.25 329.085938 C 617.320312 328.40625 617.417969 327.730469 617.550781 327.058594 C 617.683594 326.390625 617.851562 325.726562 618.050781 325.074219 C 618.25 324.421875 618.476562 323.777344 618.738281 323.144531 C 619 322.515625 619.292969 321.898438 619.613281 321.296875 C 619.9375 320.691406 620.289062 320.109375 620.667969 319.539062 C 621.046875 318.972656 621.453125 318.421875 621.886719 317.894531 C 622.320312 317.367188 622.777344 316.863281 623.261719 316.378906 C 623.746094 315.894531 624.25 315.4375 624.777344 315.003906 C 625.308594 314.570312 625.855469 314.164062 626.421875 313.785156 C 626.992188 313.40625 627.578125 313.054688 628.179688 312.730469 C 628.78125 312.410156 629.398438 312.117188 630.03125 311.855469 C 630.660156 311.59375 631.304688 311.367188 631.957031 311.167969 C 632.613281 310.96875 633.273438 310.804688 633.945312 310.667969 C 634.613281 310.535156 635.289062 310.4375 635.96875 310.371094 C 636.648438 310.300781 637.332031 310.269531 638.015625 310.269531 C 638.699219 310.269531 639.378906 310.300781 640.058594 310.371094 C 640.738281 310.4375 641.414062 310.535156 642.085938 310.667969 C 642.753906 310.804688 643.417969 310.96875 644.070312 311.167969 C 644.722656 311.367188 645.367188 311.59375 646 311.855469 C 646.628906 312.117188 647.246094 312.410156 647.847656 312.730469 C 648.453125 313.054688 649.035156 313.40625 649.605469 313.785156 C 650.171875 314.164062 650.722656 314.570312 651.25 315.003906 C 651.777344 315.4375 652.285156 315.894531 652.765625 316.378906 C 653.25 316.863281 653.707031 317.367188 654.140625 317.894531 C 654.574219 318.421875 654.980469 318.972656 655.359375 319.539062 C 655.742188 320.109375 656.089844 320.691406 656.414062 321.296875 C 656.734375 321.898438 657.027344 322.515625 657.289062 323.144531 C 657.550781 323.777344 657.78125 324.421875 657.980469 325.074219 C 658.175781 325.726562 658.34375 326.390625 658.476562 327.058594 C 658.609375 327.730469 658.710938 328.40625 658.777344 329.085938 C 658.84375 329.765625 658.878906 330.445312 658.878906 331.128906 Z M 658.878906 331.128906 " fill-opacity="1" fill-rule="nonzero"/><path fill="#93b1d7" d="M 672.785156 212.921875 C 672.785156 213.832031 672.695312 214.738281 672.519531 215.632812 C 672.339844 216.527344 672.078125 217.398438 671.726562 218.242188 C 671.378906 219.085938 670.949219 219.886719 670.441406 220.648438 C 669.933594 221.40625 669.359375 222.109375 668.710938 222.753906 C 668.066406 223.398438 667.363281 223.976562 666.605469 224.484375 C 665.84375 224.992188 665.042969 225.417969 664.199219 225.769531 C 663.355469 226.117188 662.488281 226.382812 661.589844 226.558594 C 660.695312 226.738281 659.789062 226.828125 658.878906 226.828125 C 657.964844 226.828125 657.058594 226.738281 656.164062 226.558594 C 655.269531 226.382812 654.398438 226.117188 653.554688 225.769531 C 652.710938 225.417969 651.910156 224.992188 651.148438 224.484375 C 650.390625 223.976562 649.6875 223.398438 649.042969 222.753906 C 648.398438 222.109375 647.820312 221.40625 647.3125 220.648438 C 646.804688 219.886719 646.375 219.085938 646.027344 218.242188 C 645.679688 217.398438 645.414062 216.527344 645.234375 215.632812 C 645.058594 214.738281 644.96875 213.832031 644.96875 212.921875 C 644.96875 212.007812 645.058594 211.101562 645.234375 210.207031 C 645.414062 209.3125 645.679688 208.441406 646.027344 207.597656 C 646.375 206.753906 646.804688 205.953125 647.3125 205.195312 C 647.820312 204.433594 648.398438 203.734375 649.042969 203.085938 C 649.6875 202.441406 650.390625 201.863281 651.148438 201.355469 C 651.910156 200.851562 652.710938 200.421875 653.554688 200.070312 C 654.398438 199.722656 655.269531 199.460938 656.164062 199.28125 C 657.058594 199.101562 657.964844 199.011719 658.878906 199.011719 C 659.789062 199.011719 660.695312 199.101562 661.589844 199.28125 C 662.488281 199.460938 663.355469 199.722656 664.199219 200.070312 C 665.042969 200.421875 665.84375 200.851562 666.605469 201.355469 C 667.363281 201.863281 668.066406 202.441406 668.710938 203.085938 C 669.359375 203.734375 669.933594 204.433594 670.441406 205.195312 C 670.949219 205.953125 671.378906 206.753906 671.726562 207.597656 C 672.078125 208.441406 672.339844 209.3125 672.519531 210.207031 C 672.695312 211.101562 672.785156 212.007812 672.785156 212.921875 Z M 672.785156 212.921875 " fill-opacity="1" fill-rule="nonzero"/><path fill="#93b1d7" d="M 415.234375 414.8125 C 415.234375 415.722656 415.148438 416.628906 414.96875 417.523438 C 414.789062 418.417969 414.527344 419.289062 414.175781 420.132812 C 413.828125 420.976562 413.398438 421.777344 412.890625 422.535156 C 412.382812 423.296875 411.808594 424 411.164062 424.644531 C 410.515625 425.289062 409.8125 425.867188 409.054688 426.375 C 408.296875 426.882812 407.492188 427.308594 406.648438 427.660156 C 405.804688 428.007812 404.9375 428.273438 404.039062 428.449219 C 403.144531 428.628906 402.242188 428.71875 401.328125 428.71875 C 400.414062 428.71875 399.507812 428.628906 398.613281 428.449219 C 397.71875 428.273438 396.847656 428.007812 396.003906 427.660156 C 395.160156 427.308594 394.359375 426.882812 393.601562 426.375 C 392.839844 425.867188 392.136719 425.289062 391.492188 424.644531 C 390.847656 424 390.269531 423.296875 389.761719 422.535156 C 389.253906 421.777344 388.828125 420.976562 388.476562 420.132812 C 388.128906 419.289062 387.863281 418.417969 387.6875 417.523438 C 387.507812 416.628906 387.417969 415.722656 387.417969 414.8125 C 387.417969 413.898438 387.507812 412.992188 387.6875 412.097656 C 387.863281 411.203125 388.128906 410.332031 388.476562 409.488281 C 388.828125 408.644531 389.253906 407.84375 389.761719 407.085938 C 390.269531 406.324219 390.847656 405.621094 391.492188 404.976562 C 392.136719 404.332031 392.839844 403.753906 393.601562 403.246094 C 394.359375 402.738281 395.160156 402.3125 396.003906 401.960938 C 396.847656 401.613281 397.71875 401.347656 398.613281 401.171875 C 399.507812 400.992188 400.414062 400.902344 401.328125 400.902344 C 402.242188 400.902344 403.144531 400.992188 404.039062 401.171875 C 404.9375 401.347656 405.804688 401.613281 406.648438 401.960938 C 407.492188 402.3125 408.296875 402.738281 409.054688 403.246094 C 409.8125 403.753906 410.515625 404.332031 411.164062 404.976562 C 411.808594 405.621094 412.382812 406.324219 412.890625 407.085938 C 413.398438 407.84375 413.828125 408.644531 414.175781 409.488281 C 414.527344 410.332031 414.789062 411.203125 414.96875 412.097656 C 415.148438 412.992188 415.234375 413.898438 415.234375 414.8125 Z M 415.234375 414.8125 " fill-opacity="1" fill-rule="nonzero"/><path fill="#93b1d7" d="M 540.414062 428.71875 C 540.414062 429.402344 540.378906 430.082031 540.3125 430.761719 C 540.246094 431.441406 540.144531 432.117188 540.011719 432.789062 C 539.878906 433.457031 539.714844 434.121094 539.515625 434.773438 C 539.316406 435.425781 539.085938 436.070312 538.824219 436.699219 C 538.5625 437.332031 538.273438 437.949219 537.949219 438.550781 C 537.628906 439.152344 537.277344 439.738281 536.898438 440.308594 C 536.519531 440.875 536.113281 441.421875 535.679688 441.953125 C 535.246094 442.480469 534.785156 442.984375 534.304688 443.46875 C 533.820312 443.953125 533.3125 444.410156 532.785156 444.84375 C 532.257812 445.277344 531.710938 445.683594 531.140625 446.0625 C 530.574219 446.441406 529.988281 446.792969 529.386719 447.113281 C 528.78125 447.4375 528.167969 447.730469 527.535156 447.988281 C 526.902344 448.25 526.261719 448.480469 525.605469 448.679688 C 524.953125 448.878906 524.292969 449.042969 523.621094 449.175781 C 522.949219 449.308594 522.277344 449.410156 521.597656 449.476562 C 520.914062 449.542969 520.234375 449.578125 519.550781 449.578125 C 518.867188 449.578125 518.1875 449.542969 517.507812 449.476562 C 516.824219 449.410156 516.152344 449.308594 515.480469 449.175781 C 514.8125 449.042969 514.148438 448.878906 513.496094 448.679688 C 512.839844 448.480469 512.199219 448.25 511.566406 447.988281 C 510.9375 447.730469 510.320312 447.4375 509.714844 447.113281 C 509.113281 446.792969 508.527344 446.441406 507.960938 446.0625 C 507.390625 445.683594 506.84375 445.277344 506.316406 444.84375 C 505.789062 444.410156 505.28125 443.949219 504.796875 443.46875 C 504.316406 442.984375 503.855469 442.480469 503.421875 441.953125 C 502.988281 441.421875 502.582031 440.875 502.203125 440.308594 C 501.824219 439.738281 501.472656 439.152344 501.152344 438.550781 C 500.828125 437.949219 500.539062 437.332031 500.277344 436.699219 C 500.015625 436.070312 499.785156 435.425781 499.585938 434.773438 C 499.386719 434.121094 499.222656 433.457031 499.089844 432.789062 C 498.957031 432.117188 498.855469 431.441406 498.789062 430.761719 C 498.722656 430.082031 498.6875 429.402344 498.6875 428.71875 C 498.6875 428.035156 498.722656 427.351562 498.789062 426.671875 C 498.855469 425.992188 498.957031 425.316406 499.089844 424.648438 C 499.222656 423.976562 499.386719 423.316406 499.585938 422.664062 C 499.785156 422.007812 500.015625 421.367188 500.277344 420.734375 C 500.539062 420.101562 500.828125 419.488281 501.152344 418.882812 C 501.472656 418.28125 501.824219 417.695312 502.203125 417.128906 C 502.582031 416.558594 502.988281 416.011719 503.421875 415.484375 C 503.855469 414.957031 504.316406 414.449219 504.796875 413.96875 C 505.28125 413.484375 505.789062 413.027344 506.316406 412.59375 C 506.84375 412.160156 507.390625 411.753906 507.960938 411.371094 C 508.527344 410.992188 509.113281 410.640625 509.714844 410.320312 C 510.320312 410 510.9375 409.707031 511.566406 409.445312 C 512.199219 409.183594 512.839844 408.953125 513.496094 408.753906 C 514.148438 408.558594 514.8125 408.390625 515.480469 408.257812 C 516.152344 408.125 516.824219 408.023438 517.507812 407.957031 C 518.1875 407.890625 518.867188 407.855469 519.550781 407.855469 C 520.234375 407.855469 520.914062 407.890625 521.597656 407.957031 C 522.277344 408.023438 522.949219 408.125 523.621094 408.257812 C 524.292969 408.390625 524.953125 408.558594 525.605469 408.753906 C 526.261719 408.953125 526.902344 409.183594 527.535156 409.445312 C 528.167969 409.707031 528.78125 410 529.386719 410.320312 C 529.988281 410.640625 530.574219 410.992188 531.140625 411.371094 C 531.710938 411.753906 532.257812 412.160156 532.785156 412.59375 C 533.3125 413.027344 533.820312 413.484375 534.304688 413.96875 C 534.785156 414.449219 535.246094 414.957031 535.679688 415.484375 C 536.113281 416.011719 536.519531 416.558594 536.898438 417.128906 C 537.277344 417.695312 537.628906 418.28125 537.949219 418.882812 C 538.273438 419.488281 538.5625 420.101562 538.824219 420.734375 C 539.085938 421.367188 539.316406 422.007812 539.515625 422.664062 C 539.714844 423.316406 539.878906 423.976562 540.011719 424.648438 C 540.144531 425.316406 540.246094 425.992188 540.3125 426.671875 C 540.378906 427.351562 540.414062 428.035156 540.414062 428.71875 Z M 540.414062 428.71875 " fill-opacity="1" fill-rule="nonzero"/><path fill="#93b1d7" d="M 429.144531 317.222656 C 429.144531 318.359375 429.089844 319.496094 428.976562 320.628906 C 428.867188 321.761719 428.699219 322.886719 428.476562 324.003906 C 428.253906 325.121094 427.976562 326.226562 427.648438 327.316406 C 427.316406 328.40625 426.933594 329.476562 426.496094 330.527344 C 426.0625 331.578125 425.574219 332.605469 425.039062 333.613281 C 424.503906 334.617188 423.917969 335.589844 423.285156 336.539062 C 422.652344 337.484375 421.972656 338.398438 421.25 339.277344 C 420.53125 340.160156 419.765625 341 418.960938 341.804688 C 418.15625 342.613281 417.3125 343.375 416.433594 344.097656 C 415.550781 344.820312 414.636719 345.496094 413.691406 346.128906 C 412.746094 346.761719 411.769531 347.347656 410.765625 347.882812 C 409.761719 348.421875 408.730469 348.90625 407.679688 349.34375 C 406.628906 349.777344 405.554688 350.164062 404.464844 350.492188 C 403.375 350.824219 402.273438 351.097656 401.15625 351.320312 C 400.039062 351.542969 398.914062 351.710938 397.78125 351.824219 C 396.648438 351.933594 395.511719 351.988281 394.371094 351.988281 C 393.234375 351.988281 392.097656 351.933594 390.964844 351.824219 C 389.832031 351.710938 388.707031 351.542969 387.589844 351.320312 C 386.472656 351.097656 385.367188 350.824219 384.28125 350.492188 C 383.191406 350.164062 382.117188 349.777344 381.066406 349.34375 C 380.015625 348.90625 378.984375 348.421875 377.980469 347.882812 C 376.976562 347.347656 376 346.761719 375.054688 346.128906 C 374.109375 345.496094 373.195312 344.820312 372.3125 344.097656 C 371.433594 343.375 370.589844 342.613281 369.785156 341.804688 C 368.980469 341 368.214844 340.160156 367.496094 339.277344 C 366.773438 338.398438 366.09375 337.484375 365.460938 336.539062 C 364.828125 335.589844 364.242188 334.617188 363.707031 333.613281 C 363.171875 332.605469 362.683594 331.578125 362.25 330.527344 C 361.8125 329.476562 361.429688 328.40625 361.097656 327.316406 C 360.769531 326.226562 360.492188 325.121094 360.269531 324.003906 C 360.046875 322.886719 359.878906 321.761719 359.769531 320.628906 C 359.65625 319.496094 359.601562 318.359375 359.601562 317.222656 C 359.601562 316.082031 359.65625 314.949219 359.769531 313.816406 C 359.878906 312.679688 360.046875 311.554688 360.269531 310.441406 C 360.492188 309.324219 360.769531 308.21875 361.097656 307.128906 C 361.429688 306.039062 361.8125 304.96875 362.25 303.917969 C 362.683594 302.867188 363.171875 301.835938 363.707031 300.832031 C 364.242188 299.828125 364.828125 298.851562 365.460938 297.90625 C 366.09375 296.960938 366.773438 296.046875 367.496094 295.167969 C 368.214844 294.285156 368.980469 293.445312 369.785156 292.636719 C 370.589844 291.832031 371.433594 291.070312 372.3125 290.347656 C 373.195312 289.625 374.109375 288.945312 375.054688 288.316406 C 376 287.683594 376.976562 287.097656 377.980469 286.558594 C 378.984375 286.023438 380.015625 285.539062 381.066406 285.101562 C 382.117188 284.664062 383.191406 284.28125 384.28125 283.953125 C 385.367188 283.621094 386.472656 283.34375 387.589844 283.125 C 388.707031 282.902344 389.832031 282.734375 390.964844 282.621094 C 392.097656 282.511719 393.234375 282.457031 394.371094 282.457031 C 395.511719 282.457031 396.648438 282.511719 397.78125 282.621094 C 398.914062 282.734375 400.039062 282.902344 401.15625 283.125 C 402.273438 283.34375 403.375 283.621094 404.464844 283.953125 C 405.554688 284.28125 406.628906 284.664062 407.679688 285.101562 C 408.730469 285.539062 409.761719 286.023438 410.765625 286.558594 C 411.769531 287.097656 412.746094 287.683594 413.691406 288.316406 C 414.636719 288.945312 415.550781 289.625 416.433594 290.347656 C 417.3125 291.070312 418.15625 291.832031 418.960938 292.636719 C 419.765625 293.445312 420.53125 294.285156 421.25 295.167969 C 421.972656 296.046875 422.652344 296.960938 423.285156 297.90625 C 423.917969 298.855469 424.503906 299.828125 425.039062 300.832031 C 425.574219 301.835938 426.0625 302.867188 426.496094 303.917969 C 426.933594 304.96875 427.316406 306.039062 427.648438 307.128906 C 427.976562 308.21875 428.253906 309.324219 428.476562 310.441406 C 428.699219 311.554688 428.867188 312.679688 428.976562 313.816406 C 429.089844 314.949219 429.144531 316.082031 429.144531 317.222656 Z M 429.144531 317.222656 " fill-opacity="1" fill-rule="nonzero"/></svg>