<svg xmlns="http://www.w3.org/2000/svg" viewBox="0 0 1024.5 576">
<path fill="#d76727" d="M 454.488281 164.945312 C 375.464844 185.460938 327.972656 266.15625 348.507812 345.101562 C 369.042969 424.042969 449.816406 471.488281 528.839844 450.976562 C 607.960938 430.460938 655.355469 349.765625 634.820312 270.820312 C 614.285156 191.878906 533.511719 144.433594 454.488281 164.945312 Z M 454.488281 164.945312 " fill-opacity="1" fill-rule="evenodd"/><path fill="#ec972d" d="M 607.960938 216.667969 C 596.964844 202.667969 583.632812 190.90625 568.644531 181.765625 C 579.25 222.210938 578.570312 208.308594 568.644531 249.335938 C 554.046875 309.710938 591.320312 254.003906 607.960938 216.667969 Z M 607.960938 216.667969 " fill-opacity="1" fill-rule="evenodd"/><path fill="#ec972d" d="M 512.683594 454.183594 C 518.039062 453.40625 523.488281 452.335938 528.839844 450.976562 C 535.945312 449.128906 542.757812 446.792969 549.277344 444.074219 C 552.390625 431.726562 553.949219 416.753906 578.863281 401.390625 C 604.164062 385.640625 587.523438 359.683594 608.351562 340.433594 C 632 318.460938 626.546875 312.335938 629.761719 282.976562 C 630.441406 277.042969 630.636719 269.558594 632.484375 262.851562 C 628.300781 249.820312 622.558594 237.765625 615.257812 226.78125 C 612.828125 239.613281 604.359375 252.253906 610.296875 281.128906 C 617.691406 317.488281 574.289062 326.238281 573.898438 355.792969 C 573.703125 367.460938 565.53125 385.445312 554.335938 391.863281 C 530.59375 405.667969 535.945312 436.976562 512.683594 454.183594 Z M 512.683594 454.183594 " fill-opacity="1" fill-rule="evenodd"/><path fill="#ec972d" d="M 407.96875 429.78125 C 415.65625 435.03125 423.832031 439.503906 432.300781 443.292969 C 439.890625 436.390625 450.59375 425.890625 458.285156 423.265625 C 482.90625 414.710938 512.78125 403.628906 514.921875 373.878906 C 518.425781 326.726562 524.460938 342.863281 542.074219 304.167969 C 543.4375 301.058594 555.117188 274.226562 553.265625 268.585938 C 553.074219 267.808594 556.671875 234.65625 550.445312 202.28125 C 547.332031 186.042969 553.558594 181.085938 550.542969 172.433594 C 542.367188 168.933594 534 166.113281 525.238281 164.070312 C 528.546875 190.710938 531.566406 202.085938 529.714844 219.683594 C 527.089844 245.542969 508.5 271.210938 510.253906 296.292969 C 511.226562 309.90625 508.695312 328.863281 486.605469 347.726562 C 456.238281 373.78125 483.976562 389.140625 440.183594 403.628906 C 430.0625 406.933594 419.84375 422.003906 407.96875 429.78125 Z M 407.96875 429.78125 " fill-opacity="1" fill-rule="evenodd"/><path fill="#f3b359" d="M 545.382812 170.292969 C 541.003906 168.640625 536.625 167.085938 532.148438 165.820312 C 533.121094 177.976562 532.246094 201.792969 533.414062 207.917969 C 534.582031 214.042969 532.148438 259.835938 529.8125 264.308594 C 518.816406 285.601562 550.738281 280.542969 541.6875 228.433594 C 537.5 204.320312 550.738281 198.003906 545.382812 170.292969 Z M 545.382812 170.292969 " fill-opacity="1" fill-rule="evenodd"/><path fill="#ec972d" d="M 380.527344 405.378906 C 386.269531 411.890625 392.496094 417.917969 399.308594 423.363281 C 403.492188 420.933594 407.871094 418.308594 410.5 416.265625 C 416.144531 411.792969 437.164062 402.265625 430.644531 394.976562 C 425.972656 389.628906 440.960938 364.15625 444.757812 356.378906 C 452.054688 341.890625 434.441406 333.433594 428.699219 360.460938 C 423.445312 384.960938 401.351562 398.476562 380.527344 405.378906 Z M 380.527344 405.378906 " fill-opacity="1" fill-rule="evenodd"/><path fill="#ec972d" d="M 453.613281 165.238281 C 442.90625 168.058594 432.882812 171.945312 423.445312 176.808594 C 423.25 177.101562 422.859375 201.308594 421.789062 204.03125 C 408.359375 238.640625 399.699219 241.65625 408.75 280.933594 C 410.695312 289.585938 384.320312 300.863281 380.816406 320.015625 C 376.050781 346.363281 377.023438 353.363281 357.65625 370.476562 C 362.035156 379.710938 367.191406 388.460938 373.226562 396.433594 C 386.171875 388.65625 402.324219 368.238281 397.75 350.933594 C 396.195312 344.90625 390.839844 333.433594 395.125 325.363281 C 415.074219 287.738281 442.617188 322.542969 421.984375 257.210938 C 409.917969 219.292969 464.121094 235.433594 449.332031 185.753906 C 448.648438 183.417969 449.621094 171.65625 453.613281 165.238281 Z M 453.613281 165.238281 " fill-opacity="1" fill-rule="evenodd"/><path fill="#f3b359" d="M 361.257812 377.570312 C 363.882812 382.628906 366.804688 387.390625 370.015625 391.960938 C 372.351562 390.210938 374.6875 388.070312 374.589844 384.085938 C 374.394531 374.363281 387.628906 369.113281 385.390625 364.542969 C 380.234375 353.945312 375.757812 368.917969 361.257812 377.570312 Z M 361.257812 377.570312 " fill-opacity="1" fill-rule="evenodd"/><path fill="#ec972d" d="M 343.835938 312.820312 C 344.226562 323.320312 345.6875 333.820312 348.3125 344.320312 C 356.097656 337.613281 363.398438 326.53125 364.761719 319.140625 C 367.582031 304.265625 381.792969 288.515625 373.910156 280.738281 C 362.230469 269.363281 352.207031 297.65625 343.835938 312.820312 Z M 343.835938 312.820312 " fill-opacity="1" fill-rule="evenodd"/><path fill="#ec972d" d="M 437.359375 233.195312 C 417.800781 250.113281 439.015625 298.238281 441.835938 261.488281 C 442.617188 251.378906 454.390625 256.433594 450.109375 237.085938 C 449.914062 235.917969 449.621094 234.753906 449.234375 233.488281 C 448.941406 232.320312 448.453125 230.960938 448.066406 229.503906 C 446.996094 226.292969 438.917969 231.835938 437.359375 233.195312 Z M 437.359375 233.195312 " fill-opacity="1" fill-rule="evenodd"/><path fill="#ec972d" d="M 425 309.320312 C 422.082031 309.03125 404.757812 316.417969 406.121094 327.015625 C 406.414062 328.765625 406.21875 343.15625 411.472656 337.128906 C 415.5625 332.460938 404.5625 333.140625 424.027344 317.585938 C 425.585938 316.320312 429.964844 309.808594 425 309.320312 Z M 425 309.320312 " fill-opacity="1" fill-rule="evenodd"/><path fill="#ec972d" d="M 508.304688 304.558594 C 509.960938 313.40625 508.402344 318.363281 498.085938 326.042969 C 493.511719 329.445312 487.578125 323.808594 496.726562 318.558594 C 502.371094 315.351562 499.0625 310.195312 502.175781 303.101562 C 505.777344 294.933594 506.75 296.195312 508.304688 304.558594 Z M 508.304688 304.558594 " fill-opacity="1" fill-rule="evenodd"/><path fill="#f3b359" d="M 442.421875 168.640625 C 437.945312 170.195312 433.664062 171.945312 429.476562 173.890625 C 433.078125 188.667969 434.246094 199.070312 426.851562 213.460938 C 421.109375 224.738281 421.59375 226.976562 430.546875 217.15625 C 450.984375 194.601562 440.085938 184.585938 442.421875 168.640625 Z M 442.421875 168.640625 " fill-opacity="1" fill-rule="evenodd"/><path fill="#f3b359" d="M 419.550781 436.878906 C 421.496094 438.042969 423.539062 439.113281 425.585938 440.085938 C 458.574219 408.585938 507.722656 380.976562 496.53125 367.363281 C 481.347656 348.890625 468.601562 396.140625 465.582031 397.792969 C 440.765625 410.820312 437.945312 430.363281 419.550781 436.878906 Z M 419.550781 436.878906 " fill-opacity="1" fill-rule="evenodd"/><path fill="#c0a685" d="M 691.460938 74.917969 C 669.175781 57.808594 608.253906 96.695312 538.378906 167.863281 C 545.675781 170.976562 552.976562 173.988281 560.273438 177.003906 C 597.0625 143.167969 625.964844 125.960938 636.574219 134.222656 C 655.550781 149.195312 608.351562 240.585938 531.175781 338.488281 C 454 436.390625 376.148438 503.667969 357.167969 488.792969 C 346.660156 480.53125 355.902344 448.351562 380.527344 405.28125 L 368.554688 389.726562 C 320.675781 470.226562 301.503906 534.878906 322.914062 551.40625 C 354.25 575.613281 462.175781 488.503906 563.875 356.960938 C 665.671875 225.417969 722.796875 99.128906 691.460938 74.917969 Z M 691.460938 74.917969 " fill-opacity="1" fill-rule="evenodd"/></svg>