<svg xmlns="http://www.w3.org/2000/svg" xmlns:xlink="http://www.w3.org/1999/xlink" width="1366" zoomAndPan="magnify" viewBox="0 0 1024.5 576" height="768" preserveAspectRatio="xMidYMid meet" version="1.0"><path fill="#f9ea0b" d="M 514.539062 96.71875 C 617.585938 96.71875 701.191406 180.378906 701.191406 283.585938 C 701.191406 386.703125 617.585938 470.363281 514.539062 470.363281 C 411.398438 470.363281 327.796875 386.703125 327.796875 283.585938 C 327.796875 180.378906 411.398438 96.71875 514.539062 96.71875 Z M 514.539062 96.71875 " fill-opacity="1" fill-rule="evenodd"/><path fill="#f9ea0b" d="M 338.90625 258.109375 C 349.367188 110.429688 569.441406 61.882812 642.304688 163.238281 C 852.84375 456.09375 314.648438 599.699219 338.90625 258.109375 Z M 338.90625 258.109375 " fill-opacity="1" fill-rule="evenodd"/><path fill="#f8a113" d="M 574.625 441.550781 C 486.484375 463.414062 395.289062 431.730469 362.699219 341.398438 C 330.015625 251.160156 368.625 138.59375 456.304688 114.691406 C 664.710938 57.710938 784.425781 389.574219 574.625 441.550781 Z M 574.625 441.550781 " fill-opacity="1" fill-rule="evenodd"/><path fill="#f9ea0b" d="M 477.320312 144.984375 C 475.375 144.335938 453.710938 144.617188 451.765625 152.121094 C 448.0625 165.925781 477.875 153.789062 477.320312 144.984375 Z M 477.320312 144.984375 " fill-opacity="1" fill-rule="evenodd"/><path fill="#f9ea0b" d="M 455.191406 180.097656 C 438.25 177.042969 436.488281 188.253906 457.320312 190.105469 C 463.339844 190.660156 471.394531 182.972656 455.191406 180.097656 Z M 455.191406 180.097656 " fill-opacity="1" fill-rule="evenodd"/><path fill="#f15309" d="M 499.261719 197.980469 C 498.523438 197.792969 496.113281 197.332031 493.613281 196.867188 C 489.171875 195.847656 486.949219 193.8125 485.1875 198.074219 C 480.375 209.929688 516.667969 200.757812 499.261719 197.980469 Z M 499.261719 197.980469 " fill-opacity="1" fill-rule="evenodd"/><path fill="#f15309" d="M 536.945312 190.9375 C 525.648438 185.101562 514.074219 204.371094 519.816406 205.390625 C 536.945312 208.449219 522.410156 203.632812 539.074219 199.832031 C 547.40625 197.886719 538.148438 191.585938 536.945312 190.9375 Z M 536.945312 190.9375 " fill-opacity="1" fill-rule="evenodd"/><path fill="#f15309" d="M 576.847656 175.375 C 573.050781 175.097656 569.070312 175.097656 565.460938 180.378906 C 560.925781 187.046875 573.792969 188.714844 580.644531 185.101562 C 589.347656 180.5625 583.886719 176.023438 576.847656 175.375 Z M 576.847656 175.375 " fill-opacity="1" fill-rule="evenodd"/><path fill="#f15309" d="M 560.277344 160.550781 C 561.015625 160.457031 569.257812 158.699219 574.8125 157.402344 C 584.53125 155.085938 583.976562 149.0625 574.257812 148.785156 C 548.148438 148.042969 547.40625 162.3125 560.277344 160.550781 Z M 560.277344 160.550781 " fill-opacity="1" fill-rule="evenodd"/><path fill="#f9ea0b" d="M 373.347656 343.34375 C 358.8125 323.703125 350.757812 305.265625 364.179688 290.71875 C 381.496094 273.023438 377.144531 285.996094 375.847656 300.910156 C 373.53125 327.128906 399.640625 364.746094 393.4375 370.027344 C 381.125 372.992188 380.011719 351.679688 373.347656 343.34375 Z M 373.347656 343.34375 " fill-opacity="1" fill-rule="evenodd"/><path fill="#f9ea0b" d="M 412.972656 393.742188 C 413.992188 405.695312 430.84375 415.515625 427.695312 419.40625 C 393.53125 415.792969 409.085938 348.625 412.972656 393.742188 Z M 412.972656 393.742188 " fill-opacity="1" fill-rule="evenodd"/><path fill="#f9ea0b" d="M 523.984375 443.21875 C 520.371094 445.902344 512.59375 441.363281 506.667969 433.210938 C 500.835938 425.058594 499.167969 416.441406 502.6875 413.570312 C 515.558594 403.195312 529.816406 438.863281 523.984375 443.21875 Z M 523.984375 443.21875 " fill-opacity="1" fill-rule="evenodd"/><path fill="#f9ea0b" d="M 558.054688 414.3125 C 543.886719 424.039062 556.480469 437.9375 570.273438 428.484375 C 580.644531 421.351562 568.421875 407.175781 558.054688 414.3125 Z M 558.054688 414.3125 " fill-opacity="1" fill-rule="evenodd"/><path fill="#f9ea0b" d="M 577.867188 363.726562 C 554.257812 398.46875 574.070312 391.707031 578.609375 378.828125 C 609.4375 333.707031 633.234375 402.914062 664.710938 351.679688 C 665.914062 343.15625 656.75 334.914062 630.363281 355.757812 C 606.753906 352.699219 588.050781 348.160156 577.867188 363.726562 Z M 577.867188 363.726562 " fill-opacity="1" fill-rule="evenodd"/><path fill="#f15309" d="M 433.710938 405.878906 C 436.210938 404.121094 435.195312 398.652344 431.675781 393.742188 C 428.066406 388.832031 423.34375 386.332031 420.84375 387.90625 C 411.863281 393.652344 429.917969 408.566406 433.710938 405.878906 Z M 433.710938 405.878906 " fill-opacity="1" fill-rule="evenodd"/><path fill="#f15309" d="M 429.082031 300.632812 C 461.300781 265.890625 373.71875 246.898438 406.398438 315.179688 C 430.007812 365.484375 420.289062 310.917969 429.082031 300.632812 Z M 429.082031 300.632812 " fill-opacity="1" fill-rule="evenodd"/><path fill="#f15309" d="M 577.867188 318.792969 C 569.164062 323.980469 579.535156 328.335938 597.867188 325.460938 C 640.082031 351.402344 631.382812 282.84375 577.867188 318.792969 Z M 577.867188 318.792969 " fill-opacity="1" fill-rule="evenodd"/><path fill="#f9ea0b" d="M 560.089844 266.445312 C 546.203125 263.667969 521.113281 241.152344 541.109375 233.09375 C 571.664062 220.402344 586.570312 245.785156 581.292969 267.1875 C 576.476562 274.785156 569.441406 274.691406 560.089844 266.445312 Z M 560.089844 266.445312 " fill-opacity="1" fill-rule="evenodd"/><path fill="#f9ea0b" d="M 451.117188 225.496094 C 455.5625 242.171875 465.933594 244.675781 482.042969 233.742188 C 518.796875 225.21875 456.023438 186.957031 451.117188 225.496094 Z M 451.117188 225.496094 " fill-opacity="1" fill-rule="evenodd"/><path fill="#f9ea0b" d="M 510.1875 336.394531 C 469.171875 353.90625 448.433594 338.339844 473.0625 297.207031 C 465.097656 252.269531 514.816406 261.445312 529.351562 282.660156 C 536.757812 293.59375 549.441406 341.859375 510.1875 336.394531 Z M 510.1875 336.394531 " fill-opacity="1" fill-rule="evenodd"/><path fill="#f17209" d="M 411.398438 207.152344 C 393.34375 190.199219 380.199219 196.40625 376.03125 239.117188 C 359.738281 259.777344 385.011719 268.113281 393.621094 264.039062 C 406.398438 268.484375 407.695312 250.234375 416.492188 241.246094 C 431.398438 246.0625 432.136719 231.609375 411.398438 207.152344 Z M 411.398438 207.152344 " fill-opacity="1" fill-rule="evenodd"/><path fill="#f17209" d="M 673.96875 253.660156 C 667.582031 227.257812 651.007812 202.148438 627.308594 177.96875 C 588.238281 143.039062 623.417969 202.796875 621.472656 215.210938 C 616.476562 237.632812 624.4375 252.179688 648.046875 256.996094 C 648.972656 267.929688 681.007812 279.324219 673.96875 253.660156 Z M 673.96875 253.660156 " fill-opacity="1" fill-rule="evenodd"/></svg>