<svg xmlns="http://www.w3.org/2000/svg" viewBox="0 0 1024.5 576">
<path fill="#f37b3e" d="M 462.046875 85.261719 C 558.78125 57.710938 659.582031 113.804688 687.132812 210.539062 C 714.679688 307.277344 658.589844 408.078125 561.855469 435.625 C 465.117188 463.265625 364.316406 407.171875 336.769531 310.4375 C 309.21875 213.699219 365.308594 112.898438 462.046875 85.261719 Z M 462.046875 85.261719 " fill-opacity="1" fill-rule="evenodd"/><path fill="#ee592f" d="M 657.144531 151.917969 C 669.972656 169.171875 679.996094 188.953125 686.230469 210.8125 C 713.777344 307.546875 657.6875 408.347656 560.949219 435.894531 C 485.441406 457.484375 407.402344 427.949219 363.683594 367.882812 C 371.632812 345.753906 428.808594 305.289062 469.09375 295.984375 C 530.601562 277.019531 602.230469 293.90625 593.285156 241.519531 C 581.273438 196.359375 644.5 214.875 657.144531 151.917969 Z M 657.144531 151.917969 " fill-opacity="1" fill-rule="evenodd"/><path fill="#f9af68" d="M 597.621094 99.710938 C 600.152344 101.066406 602.589844 102.421875 605.027344 103.867188 C 586.785156 182.628906 599.789062 212.4375 635.195312 126.269531 C 638.628906 129.429688 641.972656 132.769531 645.222656 136.292969 C 594.191406 286.953125 460.78125 193.828125 329.722656 261.574219 C 329.722656 251.003906 330.535156 240.617188 332.253906 230.410156 C 419.324219 93.839844 565.015625 250.28125 597.621094 99.710938 Z M 597.621094 99.710938 " fill-opacity="1" fill-rule="evenodd"/><path fill="#f9af68" d="M 462.046875 85.261719 C 503.59375 73.429688 545.867188 77.042969 582.71875 92.667969 C 505.132812 144.964844 486.796875 75.234375 370.277344 146.046875 C 393.039062 117.777344 424.472656 96.007812 462.046875 85.261719 Z M 462.046875 85.261719 " fill-opacity="1" fill-rule="evenodd"/><path fill="#f9af68" d="M 352.664062 348.914062 C 346.070312 336.902344 340.652344 324.074219 336.769531 310.4375 C 335.234375 305.019531 333.96875 299.597656 332.972656 294.179688 C 387.078125 260.488281 446.511719 245.40625 511.09375 248.476562 C 539.816406 255.882812 502.332031 299.597656 442.71875 271.871094 C 407.671875 255.519531 376.691406 312.0625 352.664062 348.914062 Z M 352.664062 348.914062 " fill-opacity="1" fill-rule="evenodd"/><path fill="#ee592f" d="M 491.945312 120.304688 C 477.671875 124.371094 468.550781 136.113281 471.441406 146.410156 C 474.421875 156.796875 488.332031 161.855469 502.601562 157.789062 C 516.871094 153.726562 526.085938 142.074219 523.105469 131.6875 C 520.125 121.390625 506.214844 116.242188 491.945312 120.304688 Z M 491.945312 120.304688 " fill-opacity="1" fill-rule="evenodd"/><path fill="#f9af68" d="M 492.214844 121.480469 C 480.652344 124.730469 473.15625 134.035156 475.503906 142.164062 C 477.851562 150.292969 489.054688 154.179688 500.613281 150.925781 C 512.175781 147.585938 519.671875 138.371094 517.414062 130.242188 C 515.066406 122.113281 503.777344 118.140625 492.214844 121.480469 Z M 492.214844 121.480469 " fill-opacity="1" fill-rule="evenodd"/><path fill="#ee6145" d="M 614.601562 230.050781 C 609.542969 236.101562 602.589844 237.816406 598.886719 233.753906 C 583.621094 216.773438 632.578125 208.371094 614.601562 230.050781 Z M 614.601562 230.050781 " fill-opacity="1" fill-rule="evenodd"/><path fill="#ee6145" d="M 694.085938 265.90625 C 691.828125 343.132812 640.164062 413.316406 561.855469 435.625 C 491.582031 455.675781 419.054688 431.5625 374.160156 379.625 C 416.523438 375.742188 442.628906 340.875 494.382812 335.09375 C 531.324219 335.1875 561.042969 318.835938 585.066406 289.480469 C 624.449219 244.5 659.945312 246.128906 694.085938 265.90625 Z M 694.085938 265.90625 " fill-opacity="1" fill-rule="evenodd"/><path fill="#f37b3e" d="M 343.632812 330.128906 C 341.011719 323.714844 338.664062 317.210938 336.769531 310.4375 C 408.757812 267.625 390.78125 277.921875 343.632812 330.128906 Z M 343.632812 330.128906 " fill-opacity="1" fill-rule="evenodd"/><path fill="#ee6145" d="M 467.195312 334.644531 C 480.925781 330.761719 490.046875 320.554688 487.609375 311.882812 C 477.222656 275.300781 418.421875 348.554688 467.195312 334.644531 Z M 467.195312 334.644531 " fill-opacity="1" fill-rule="evenodd"/><path fill="#f99f51" d="M 667.714844 166.011719 C 675.933594 179.558594 682.527344 194.460938 687.132812 210.539062 C 705.738281 275.753906 686.320312 342.773438 641.972656 388.023438 C 588.859375 390.28125 691.195312 256.785156 648.566406 292.734375 C 511.722656 408.167969 568.175781 350.8125 404.058594 407.265625 C 395.207031 400.761719 386.988281 393.445312 379.402344 385.496094 C 565.558594 369.507812 568.085938 308.539062 667.714844 166.011719 Z M 667.714844 166.011719 " fill-opacity="1" fill-rule="evenodd"/><path fill="#f38375" d="M 627.789062 347.832031 C 605.390625 374.929688 591.480469 339.519531 619.210938 328.140625 C 630.046875 323.714844 640.886719 332.113281 627.789062 347.832031 Z M 627.789062 347.832031 " fill-opacity="1" fill-rule="evenodd"/><path fill="#ee592f" d="M 570.074219 433.097656 C 567.363281 434 564.652344 434.902344 561.855469 435.625 C 503.144531 452.425781 442.808594 438.246094 398.367188 402.929688 C 433.144531 420.269531 474.242188 434.453125 493.027344 416.566406 C 520.9375 389.921875 555.171875 375.921875 570.074219 433.097656 Z M 570.074219 433.097656 " fill-opacity="1" fill-rule="evenodd"/><path fill="#ee592f" d="M 674.398438 178.113281 C 679.636719 188.320312 683.882812 199.160156 687.132812 210.539062 C 600.601562 296.527344 633.300781 259.3125 674.398438 178.113281 Z M 674.398438 178.113281 " fill-opacity="1" fill-rule="evenodd"/><path fill="#ee592f" d="M 690.65625 225.441406 C 699.054688 267.535156 691.917969 309.804688 672.953125 345.574219 C 696.4375 260.035156 623.90625 305.558594 690.65625 225.441406 Z M 690.65625 225.441406 " fill-opacity="1" fill-rule="evenodd"/><path fill="#f37b3e" d="M 693.996094 253.804688 C 694.539062 267.804688 693.457031 281.625 690.835938 294.992188 C 686.679688 291.921875 683.429688 287.496094 681.894531 282.074219 C 678.640625 270.695312 683.972656 258.863281 693.996094 253.804688 Z M 693.996094 253.804688 " fill-opacity="1" fill-rule="evenodd"/></svg>